<svg width="24" height="24" viewBox="0 0 24 24" fill="none" xmlns="http://www.w3.org/2000/svg">
<path d="M0.75 10.4813C2.55 10.4813 4.31875 10.4813 6.08125 10.4813C7.1875 10.4813 8.3 10.475 9.40625 10.4875C9.55625 10.4875 9.64375 10.4438 9.725 10.3125C9.8875 10.0375 10.0625 9.76876 10.2438 9.50626C10.2813 9.45626 10.3688 9.43126 10.4375 9.42501C10.5125 9.41876 10.5938 9.47501 10.6688 9.45626C10.975 9.40001 11.0625 9.60001 11.15 9.82501C11.325 10.2563 11.525 10.6813 11.7063 11.1125C11.8063 11.3563 11.9875 11.5 12.2438 11.55C12.6063 11.6188 12.9625 11.5688 13.2938 11.425C13.625 11.2813 13.7875 10.9063 13.7 10.5438C13.5688 10.0063 13.4188 9.47501 13.2625 8.88126C14.025 8.88126 14.7688 8.86251 15.5063 8.88751C15.975 8.90001 16.4375 8.97501 16.9 9.03751C16.9688 9.04376 17.0625 9.09376 17.1 9.15626C17.4438 9.73126 17.9375 9.96876 18.6 9.85001C18.6313 9.84376 18.6625 9.84376 18.725 9.84376C18.725 9.93126 18.725 10.0125 18.725 10.1C18.725 13.8875 18.725 17.675 18.725 21.4688C18.725 22.075 18.5188 22.2813 17.9063 22.2813C12.4625 22.2813 7.01875 22.2813 1.56875 22.2813C0.95625 22.2688 0.75 22.0625 0.75 21.4375C0.75 17.875 0.75 14.3125 0.75 10.75C0.75 10.6688 0.75 10.5813 0.75 10.4813ZM9.74375 12.3C7.40625 12.2938 5.49375 14.1938 5.48125 16.525C5.46875 18.875 7.36875 20.7938 9.7125 20.8063C12.0625 20.8188 13.9688 18.9188 13.9875 16.5688C14.0063 14.2313 12.0938 12.3063 9.74375 12.3Z" fill="url(#paint0_linear_4134_11863)"/>
<path d="M9.175 6.75004C8.8375 7.76254 9 8.37504 9.80625 9.13129C9.65625 9.36254 9.5125 9.60004 9.35625 9.83129C9.325 9.87504 9.24375 9.91254 9.18125 9.91254C6.3875 9.91254 3.5875 9.91254 0.79375 9.91254C0.7875 9.91254 0.78125 9.90629 0.75625 9.88754C0.75625 9.83129 0.75 9.76254 0.75 9.69379C0.75 8.93754 0.75 8.18129 0.75 7.41879C0.75 6.99379 0.9875 6.73754 1.40625 6.73129C3.96875 6.72504 6.53125 6.73129 9.09375 6.73129C9.11875 6.73754 9.1375 6.74379 9.175 6.75004ZM5.575 8.68129C5.81875 8.68129 6 8.49379 6.00625 8.25004C6.00625 8.00004 5.81875 7.80629 5.5625 7.80629C5.31875 7.81254 5.1375 7.99379 5.13125 8.23754C5.13125 8.49379 5.325 8.68129 5.575 8.68129ZM7.4375 8.68129C7.69375 8.69379 7.89375 8.51254 7.9 8.26254C7.90625 8.02504 7.725 7.82504 7.4875 7.81254C7.2375 7.80004 7.03125 7.98129 7.025 8.23129C7.01875 8.47504 7.19375 8.66879 7.4375 8.68129ZM3.675 7.80629C3.4375 7.81254 3.24375 8.00629 3.24375 8.24379C3.24375 8.48754 3.44375 8.68129 3.69375 8.68129C3.93125 8.67504 4.125 8.48754 4.125 8.25004C4.125 8.00004 3.91875 7.80629 3.675 7.80629Z" fill="url(#paint1_linear_4134_11863)"/>
<path d="M13.1563 8.29404C12.9375 7.48154 12.7125 6.62529 12.4938 5.81279C13.5563 5.16904 14.6063 4.53154 15.6625 3.89404C16.0563 5.36904 16.4688 6.89404 16.8625 8.37529C15.6438 8.35029 14.425 8.31904 13.1563 8.29404Z" fill="url(#paint2_linear_4134_11863)"/>
<path d="M19.0875 8.47527C19.0875 8.93777 18.8 9.26277 18.3938 9.31902C18.0188 9.36902 17.65 9.11277 17.5375 8.71277C17.35 8.03777 17.175 7.36277 16.9938 6.68152C16.6938 5.56277 16.3875 4.44402 16.0938 3.32527C15.9313 2.72527 16.3188 2.21277 16.9 2.25652C17.25 2.28152 17.5125 2.51902 17.625 2.91902C17.8938 3.92527 18.1625 4.93152 18.4313 5.94402C18.6375 6.71902 18.8438 7.49402 19.05 8.26902C19.0688 8.35027 19.0813 8.43777 19.0875 8.47527Z" fill="url(#paint3_linear_4134_11863)"/>
<path d="M11.9375 5.91895C12.1625 6.76895 12.3937 7.60645 12.6187 8.45644C12.5937 8.47519 12.5687 8.5002 12.5437 8.50645C12.075 8.63145 11.6125 8.76269 11.1437 8.87519C10.4875 9.02519 9.81247 8.60644 9.61872 7.95019C9.41872 7.28144 9.77497 6.5627 10.4187 6.33145C10.5062 6.3002 10.5937 6.2752 10.6875 6.2502C11.1 6.1377 11.5125 6.03145 11.9375 5.91895Z" fill="url(#paint4_linear_4134_11863)"/>
<path d="M11.5875 9.3501C11.65 9.33135 11.7187 9.30635 11.7812 9.2876C12.0875 9.20635 12.3937 9.1251 12.7187 9.0376C12.8687 9.5876 13.0187 10.1188 13.1437 10.6626C13.1625 10.7376 13.0625 10.8626 12.9875 10.9251C12.9312 10.9751 12.825 10.9751 12.7437 10.9876C12.35 11.0626 12.2875 11.0251 12.125 10.6563C11.9437 10.2376 11.7625 9.81885 11.5812 9.39385C11.575 9.39385 11.5812 9.3751 11.5875 9.3501Z" fill="url(#paint5_linear_4134_11863)"/>
<path d="M19.2125 6.71274C19 5.91274 18.7875 5.12524 18.575 4.32524C19.1437 4.26899 19.6812 4.65649 19.85 5.23149C20.0187 5.80649 19.7625 6.42524 19.2125 6.71274Z" fill="url(#paint6_linear_4134_11863)"/>
<path d="M23.0312 4.04395C23.0875 4.10645 23.2062 4.1877 23.2375 4.2877C23.2875 4.45645 23.175 4.56895 23.0125 4.6127C22.575 4.73145 22.1375 4.8502 21.7062 4.9627C21.475 5.0252 21.2437 5.09395 21.0062 5.14395C20.8437 5.18145 20.7125 5.1252 20.6625 4.94395C20.6187 4.76895 20.7 4.64395 20.8625 4.6002C21.5312 4.4127 22.2 4.24395 22.8687 4.0627C22.9 4.06895 22.9312 4.0627 23.0312 4.04395Z" fill="url(#paint7_linear_4134_11863)"/>
<path d="M20.8688 6.46289C21.1438 6.53789 21.3626 6.59414 21.5813 6.65039C21.9313 6.74414 22.2876 6.83789 22.6376 6.93164C22.8188 6.98164 22.9313 7.08789 22.8876 7.28164C22.8376 7.48164 22.6876 7.52539 22.5063 7.48164C21.9688 7.33789 21.4251 7.18789 20.8876 7.04414C20.7188 7.00039 20.6126 6.88789 20.6626 6.72539C20.6938 6.62539 20.8063 6.54414 20.8688 6.46289Z" fill="url(#paint8_linear_4134_11863)"/>
<path d="M19.9625 3.55641C19.8875 3.50016 19.775 3.45641 19.75 3.38141C19.7188 3.29391 19.725 3.14391 19.7813 3.08766C20.1938 2.65016 20.6188 2.22516 21.05 1.80641C21.1688 1.69391 21.3125 1.70641 21.425 1.81891C21.5375 1.93766 21.55 2.08141 21.4375 2.19391C21.025 2.61891 20.6063 3.03766 20.1813 3.45641C20.1313 3.50016 20.05 3.51266 19.9625 3.55641Z" fill="url(#paint9_linear_4134_11863)"/>
<path d="M13.4249 16.5499C13.4312 18.5874 11.7687 20.2499 9.73744 20.2499C7.71244 20.2499 6.05619 18.5937 6.04994 16.5749C6.04369 14.5249 7.70619 12.8624 9.74994 12.8687C11.7812 12.8749 13.4187 14.5187 13.4249 16.5499ZM8.11244 16.5687C8.11244 17.0999 8.11244 17.6312 8.11244 18.1624C8.11244 18.6937 8.53119 18.9437 8.98744 18.6812C9.92494 18.1437 10.8624 17.5999 11.7999 17.0562C12.2562 16.7937 12.2499 16.3062 11.7937 16.0437C10.8624 15.5062 9.93744 14.9687 8.99994 14.4312C8.53119 14.1624 8.11244 14.4124 8.11244 14.9499C8.11244 15.4937 8.11244 16.0312 8.11244 16.5687Z" fill="url(#paint10_linear_4134_11863)"/>
<path d="M11.55 16.5566C10.5813 17.1191 9.64375 17.6566 8.6875 18.2066C8.6875 17.0941 8.6875 16.0129 8.6875 14.9004C9.6375 15.4566 10.5813 15.9941 11.55 16.5566Z" fill="url(#paint11_linear_4134_11863)"/>
<defs>
<linearGradient id="paint0_linear_4134_11863" x1="2.61227" y1="8.87451" x2="8.28901" y2="24.2289" gradientUnits="userSpaceOnUse">
<stop stop-color="#BCDDFF"/>
<stop offset="1" stop-color="#738CF6"/>
</linearGradient>
<linearGradient id="paint1_linear_4134_11863" x1="1.68826" y1="6.72852" x2="2.38935" y2="10.7514" gradientUnits="userSpaceOnUse">
<stop stop-color="#BCDDFF"/>
<stop offset="1" stop-color="#738CF6"/>
</linearGradient>
<linearGradient id="paint2_linear_4134_11863" x1="12.9464" y1="3.89404" x2="15.3033" y2="8.52946" gradientUnits="userSpaceOnUse">
<stop stop-color="#BCDDFF"/>
<stop offset="1" stop-color="#738CF6"/>
</linearGradient>
<linearGradient id="paint3_linear_4134_11863" x1="16.3705" y1="2.25391" x2="20.9251" y2="6.19236" gradientUnits="userSpaceOnUse">
<stop stop-color="#BCDDFF"/>
<stop offset="1" stop-color="#738CF6"/>
</linearGradient>
<linearGradient id="paint4_linear_4134_11863" x1="9.87968" y1="5.91895" x2="11.4054" y2="9.0679" gradientUnits="userSpaceOnUse">
<stop stop-color="#BCDDFF"/>
<stop offset="1" stop-color="#738CF6"/>
</linearGradient>
<linearGradient id="paint5_linear_4134_11863" x1="11.741" y1="9.0376" x2="12.902" y2="10.8899" gradientUnits="userSpaceOnUse">
<stop stop-color="#BCDDFF"/>
<stop offset="1" stop-color="#738CF6"/>
</linearGradient>
<linearGradient id="paint6_linear_4134_11863" x1="18.7124" y1="4.31982" x2="20.2603" y2="6.05067" gradientUnits="userSpaceOnUse">
<stop stop-color="#BCDDFF"/>
<stop offset="1" stop-color="#738CF6"/>
</linearGradient>
<linearGradient id="paint7_linear_4134_11863" x1="20.92" y1="4.04395" x2="21.2133" y2="5.42812" gradientUnits="userSpaceOnUse">
<stop stop-color="#BCDDFF"/>
<stop offset="1" stop-color="#738CF6"/>
</linearGradient>
<linearGradient id="paint8_linear_4134_11863" x1="20.8829" y1="6.46289" x2="21.1749" y2="7.74263" gradientUnits="userSpaceOnUse">
<stop stop-color="#BCDDFF"/>
<stop offset="1" stop-color="#738CF6"/>
</linearGradient>
<linearGradient id="paint9_linear_4134_11863" x1="19.9162" y1="1.72803" x2="20.8772" y2="3.62023" gradientUnits="userSpaceOnUse">
<stop stop-color="#BCDDFF"/>
<stop offset="1" stop-color="#738CF6"/>
</linearGradient>
<linearGradient id="paint10_linear_4134_11863" x1="6.81401" y1="12.8687" x2="10.6396" y2="20.5798" gradientUnits="userSpaceOnUse">
<stop stop-color="#BCDDFF"/>
<stop offset="1" stop-color="#738CF6"/>
</linearGradient>
<linearGradient id="paint11_linear_4134_11863" x1="8.98407" y1="14.9004" x2="10.84" y2="18.142" gradientUnits="userSpaceOnUse">
<stop stop-color="#BCDDFF"/>
<stop offset="1" stop-color="#738CF6"/>
</linearGradient>
</defs>
</svg>
