<svg width="22" height="22" viewBox="0 0 22 22" fill="none" xmlns="http://www.w3.org/2000/svg">
<path d="M7.7 22H14.3C19.8 22 22 19.8 22 14.3V7.7C22 2.2 19.8 0 14.3 0H7.7C2.2 0 0 2.2 0 7.7V14.3C0 19.8 2.2 22 7.7 22Z" fill="url(#paint0_linear_4134_11886)"/>
<path d="M8.79999 8.22266L6.51749 10.5052C6.25166 10.771 6.25166 11.2202 6.51749 11.486L8.79999 13.7685" fill="url(#paint1_linear_4134_11886)"/>
<path d="M8.79999 8.22266L6.51749 10.5052C6.25166 10.771 6.25166 11.2202 6.51749 11.486L8.79999 13.7685" stroke="white" stroke-width="1.5" stroke-miterlimit="10" stroke-linecap="round" stroke-linejoin="round"/>
<path d="M13.2 8.22266L15.4825 10.5052C15.7483 10.771 15.7483 11.2202 15.4825 11.486L13.2 13.7685" fill="url(#paint2_linear_4134_11886)"/>
<path d="M13.2 8.22266L15.4825 10.5052C15.7483 10.771 15.7483 11.2202 15.4825 11.486L13.2 13.7685" stroke="white" stroke-width="1.5" stroke-miterlimit="10" stroke-linecap="round" stroke-linejoin="round"/>
<defs>
<linearGradient id="paint0_linear_4134_11886" x1="2.57658" y1="4.5075e-07" x2="18.9279" y2="22" gradientUnits="userSpaceOnUse">
<stop stop-color="#B7E0FC"/>
<stop offset="1" stop-color="#40B3FF"/>
</linearGradient>
<linearGradient id="paint1_linear_4134_11886" x1="6.60879" y1="8.22266" x2="10.4133" y2="10.5135" gradientUnits="userSpaceOnUse">
<stop stop-color="#B7E0FC"/>
<stop offset="1" stop-color="#40B3FF"/>
</linearGradient>
<linearGradient id="paint2_linear_4134_11886" x1="13.4906" y1="8.22266" x2="17.2952" y2="10.5135" gradientUnits="userSpaceOnUse">
<stop stop-color="#B7E0FC"/>
<stop offset="1" stop-color="#40B3FF"/>
</linearGradient>
</defs>
</svg>
