<svg width="20" height="18" viewBox="0 0 20 18" fill="none" xmlns="http://www.w3.org/2000/svg">
<path d="M12.7572 11.1805C12.7572 11.0945 12.7572 11.02 12.7572 10.9398C12.7572 7.78795 12.7572 4.63608 12.7572 1.48422C12.7572 0.664735 13.3648 0.0458242 14.1501 0.0572855C14.8609 0.0630162 15.48 0.636082 15.4972 1.35241C15.5087 1.70198 15.652 1.94267 15.9386 2.10886C16.3341 2.33809 16.7353 2.55585 17.1423 2.76789C17.7442 3.0888 18.3174 3.4441 18.7817 3.95986C19.3836 4.63035 19.6587 5.42691 19.6301 6.3209C19.6072 7.03723 18.9881 7.62176 18.2658 7.62176C17.5436 7.62176 16.913 7.04869 16.8958 6.32663C16.8901 5.97706 16.7411 5.7421 16.4602 5.57018C16.1564 5.3868 15.8469 5.21488 15.5144 5.02004C15.5144 5.11173 15.5144 5.18622 15.5144 5.26072C15.5144 8.25213 15.48 11.2493 15.5259 14.2407C15.5545 16.1318 14.2533 17.4957 12.6369 17.8338C11.0605 18.1604 9.67907 17.7593 8.65301 16.4871C7.38047 14.9112 7.86771 12.6819 9.67333 11.6218C10.5905 11.0831 11.5707 10.9398 12.6139 11.169C12.6483 11.1748 12.6827 11.1805 12.7171 11.1862C12.7114 11.1862 12.7228 11.1862 12.7572 11.1805Z" fill="url(#paint0_linear_4209_12799)"/>
<path d="M5.88428 2.80783C4.50283 2.80783 3.12138 2.81356 1.73993 2.80783C1.10366 2.80783 0.55911 2.36084 0.415806 1.75339C0.26677 1.12875 0.541913 0.504107 1.12086 0.223305C1.31575 0.131614 1.54504 0.0685768 1.75713 0.0685768C4.4971 0.0571155 7.2428 0.0571156 9.9885 0.0628463C10.7738 0.0628463 11.3871 0.676027 11.3814 1.44967C11.3757 2.20611 10.7681 2.81356 9.9885 2.81356C8.61852 2.81356 7.24853 2.80783 5.88428 2.80783Z" fill="url(#paint1_linear_4209_12799)"/>
<path d="M5.88433 6.2462C7.26005 6.2462 8.63577 6.24047 10.0115 6.25193C10.5962 6.25766 11.0261 6.54419 11.2611 7.07714C11.4961 7.61583 11.3987 8.11439 11.0146 8.54993C10.7624 8.83646 10.4299 8.99119 10.0459 8.99119C7.26578 8.99692 4.48569 8.99692 1.71132 8.99119C0.971876 8.99119 0.375732 8.35508 0.375732 7.61583C0.375732 6.87657 0.977608 6.25193 1.72279 6.2462C3.10997 6.24047 4.49715 6.2462 5.88433 6.2462Z" fill="url(#paint2_linear_4209_12799)"/>
<path d="M3.4539 15.1864C2.90361 15.1864 2.35332 15.1864 1.79731 15.1864C0.994805 15.1864 0.375732 14.5904 0.375732 13.8168C0.375732 13.0431 0.989073 12.4414 1.79731 12.4414C2.91508 12.4414 4.03285 12.4414 5.15062 12.4414C5.95312 12.4414 6.57219 13.0489 6.56646 13.8225C6.56072 14.5904 5.94738 15.1864 5.15635 15.1864C4.58886 15.1921 4.02138 15.1864 3.4539 15.1864Z" fill="url(#paint3_linear_4209_12799)"/>
<defs>
<linearGradient id="paint0_linear_4209_12799" x1="9.15173" y1="0.0571288" x2="20.3614" y2="14.8403" gradientUnits="userSpaceOnUse">
<stop stop-color="#CE80FF"/>
<stop offset="1" stop-color="#8A75FF"/>
</linearGradient>
<linearGradient id="paint1_linear_4209_12799" x1="1.51607" y1="0.059082" x2="1.95419" y2="3.59057" gradientUnits="userSpaceOnUse">
<stop stop-color="#CE80FF"/>
<stop offset="1" stop-color="#8A75FF"/>
</linearGradient>
<linearGradient id="paint2_linear_4209_12799" x1="1.51662" y1="6.24365" x2="1.95366" y2="9.77191" gradientUnits="userSpaceOnUse">
<stop stop-color="#CE80FF"/>
<stop offset="1" stop-color="#8A75FF"/>
</linearGradient>
<linearGradient id="paint3_linear_4209_12799" x1="1.01712" y1="12.4414" x2="1.76766" y2="15.8531" gradientUnits="userSpaceOnUse">
<stop stop-color="#CE80FF"/>
<stop offset="1" stop-color="#8A75FF"/>
</linearGradient>
</defs>
</svg>
