<svg width="22" height="21" viewBox="0 0 22 21" fill="none" xmlns="http://www.w3.org/2000/svg">
<path d="M13.5079 3.61429L11.3192 5.78347C10.7359 6.36161 10.4279 7.05982 10.4279 7.85735C10.4279 9.03646 11.1216 10.115 12.209 10.6049C13.3259 11.108 14.6055 10.7949 15.4702 10.0331L15.4812 10.0234L15.4916 10.0131L16.7303 8.7854L17.7823 7.74286L18.091 8.0488C18.0988 8.05654 18.1068 8.06454 18.1151 8.07277C18.2198 8.17679 18.3608 8.317 18.521 8.43175V8.43922V8.45648V8.47375V8.49101V8.50828V8.52554V8.5428V8.56007V8.57733V8.5946V8.61186V8.62913V8.64639V8.66365V8.68092V8.69818V8.71545V8.73271V8.74998V8.76724V8.7845V8.80177V8.81903V8.8363V8.85356V8.87082V8.88809V8.90535V8.92262V8.93988V8.95715V8.97441V8.99167V9.00894V9.0262V9.04347V9.06073V9.078V9.09526V9.11252V9.12979V9.14705V9.16432V9.18158V9.19885V9.21611V9.23337V9.25064V9.2679V9.28517V9.30243V9.31969V9.33696V9.35422V9.37149V9.38875V9.40602V9.42328V9.44054V9.45781V9.47507V9.49234V9.5096V9.52687V9.54413V9.56139V9.57866V9.59592V9.61319V9.63045V9.64772V9.66498V9.68224V9.69951V9.71677V9.73404V9.7513V9.76856V9.78583V9.80309V9.82036V9.83762V9.85489V9.87215V9.88941V9.90668V9.92394V9.94121V9.95847V9.97574V9.993V10.0103V10.0275V10.0448V10.0621V10.0793V10.0966V10.1138V10.1311V10.1484V10.1656V10.1829V10.2002V10.2174V10.2347V10.252V10.2692V10.2865V10.3038V10.321V10.3383V10.3555V10.3728V10.3901V10.4073V10.4246V10.4419V10.4591V10.4764V10.4937V10.5109V10.5282V10.5455V10.5627V10.58V10.5972V10.6145V10.6318V10.649V10.6663V10.6836V10.7008V10.7181V10.7354V10.7526V10.7699V10.7872V10.8044V10.8217V10.8389V10.8562V10.8735V10.8907V10.908V10.9253V10.9425V10.9598V10.9771V10.9943V11.0116V11.0289V11.0461V11.0634V11.0806V11.0979V11.1152V11.1324V11.1497V11.167V11.1842V11.2015V11.2188V11.236V11.2533V11.2706V11.2878V11.3051V11.3223V11.3396V11.3569V11.3741V11.3914V11.4087V11.4259V11.4432V11.4605V11.4777V11.495V11.5123V11.5295V11.5468V11.564V11.5813V11.5986V11.6158V11.6331V11.6504V11.6676V11.6849V11.7022V11.7194V11.7367V11.754V11.7712V11.7885V11.8057V11.823V11.8403V11.8575V11.8748V11.8921V11.9093V11.9266V11.9439V11.9611V11.9784V11.9957V12.0129V12.0302V12.0474V12.0647V12.082V12.0992V12.1165V12.1338V12.151V12.1683V12.1856V12.2028V12.2201V12.2374V12.2546V12.2719V12.2891V12.3064V12.3237V12.3409V12.3582V12.3755V12.3927V12.41V12.4273V12.4445V12.4618V12.479V12.4963V12.5136V12.5308V12.5481V12.5654V12.5826V12.5999V12.6172V12.6344V12.6517V12.669V12.6862V12.7035V12.7207V12.738V12.7553V12.7725V12.7898V12.8071V12.8243V12.8416V12.8589V12.8761V12.8934V12.9107V12.9279V12.9452V12.9624V12.9797V12.997V13.0142V13.0315V13.0488V13.066V13.0833V13.1006V13.1178V13.1351V13.1524V13.1696V13.1869V13.2041V13.2214V13.2387V13.2559V13.2732V13.2905V13.3077V13.325V13.3423V13.3595V13.3768V13.3941V13.4113V13.4286V13.4458V13.4631V13.4804V13.4976V13.5149V13.5322V13.5494V13.5667V13.584V13.6012V13.6185V13.6358V13.653V13.6703V13.6875V13.7048V13.7221V13.7393V13.7566V13.7739V13.7911V13.8084V13.8257V13.8429V13.8602V13.8775V13.8947V13.912V13.9292V13.9465V13.9638V13.981V13.9983V14.0156V14.0328V14.0501V14.0674V14.0846V14.1019V14.1192V14.1364V14.1537V14.1709V14.1882V14.2055V14.2227V14.24V14.2573V14.2745V14.2918V14.3091V14.3263V14.3436V14.3609V14.3781V14.3954V14.4126V14.4299V14.4472V14.4644V14.4817V14.499V14.5162V14.5335V14.5508V14.568V14.5853V14.6026V14.6198V14.6371V14.6543V14.6716V14.6889V14.7061V14.7234V14.7407V14.7579V14.7752V14.7925V14.8097V14.827V14.8442V14.8615V14.8788V14.896V14.9133V14.9306V14.9478V14.9651V14.9824V14.9996V15.0169V15.0342V15.0514V15.0687V15.0859V15.1032V15.1205V15.1377V15.155V15.1723V15.1895V15.2068V15.2241V15.2413V15.2586V15.2759V15.2931V15.3104V15.3276V15.3449V15.3622V15.3794V15.3967V15.414V15.4312V15.4485V15.4658V15.483V15.5003V15.5176V15.5348V15.5521V15.5693V15.5866V15.6039V15.6211V15.6384V15.6557V15.6729V15.6902V15.7075V15.7247V15.742V15.7593V15.7765V15.7938V15.811V15.8283V15.8456V15.8628V15.8801V15.8974V15.9146V15.9319V15.9492V15.9664V15.9837V16.001V16.0182V16.0355V16.0527V16.07V16.0873V16.1045V16.1218V16.1391V16.1563V16.1736V16.1909V16.2081V16.2254V16.2427V16.2599V16.2772V16.2944V16.3117V16.329V16.3462V16.3635V16.3808V16.398V16.4153V16.4326V16.4498V16.4671V16.4844V16.5016V16.5189V16.5361V16.5534V16.5707V16.5879V16.6052V16.6225V16.6397V16.657V16.6743V16.6915V16.7088V16.7261V16.7433V16.7606V16.7778V16.7951V16.8124V16.8296V16.8469V16.8642V16.8814V16.8987V16.916V16.9332V16.9505V16.9677V16.985V17.0023V17.0195V17.0368V17.0541V17.0713V17.0886V17.1059C18.521 17.1624 18.5214 17.2147 18.5217 17.264C18.5224 17.3713 18.523 17.4645 18.5198 17.5566C18.5152 17.6888 18.5034 17.77 18.4883 17.8196C18.4872 17.8229 18.4863 17.8259 18.4854 17.8286C18.4713 17.8311 18.4492 17.8335 18.4167 17.8335L15.3846 17.8335L12.4144 17.8335L8.12388 17.8335L3.83333 17.8335C3.68449 17.8335 3.58057 17.8326 3.50406 17.829C3.50059 17.7524 3.5 17.6488 3.5 17.5001V17.4742V17.4483V17.4223V17.3964V17.3704V17.3444V17.3183V17.2923V17.2662V17.2401V17.214V17.1879V17.1617V17.1356V17.1094V17.0832V17.0569V17.0307V17.0044V16.9781V16.9518V16.9255V16.8992V16.8728V16.8464V16.82V16.7936V16.7672V16.7407V16.7142V16.6878V16.6612V16.6347V16.6082V16.5816V16.555V16.5284V16.5018V16.4752V16.4485V16.4218V16.3952V16.3684V16.3417V16.315V16.2882V16.2614V16.2347V16.2078V16.181V16.1542V16.1273V16.1004V16.0736V16.0466V16.0197V15.9928V15.9658V15.9389V15.9119V15.8849V15.8578V15.8308V15.8038V15.7767V15.7496V15.7225V15.6954V15.6683V15.6411V15.614V15.5868V15.5596V15.5324V15.5052V15.4779V15.4507V15.4234V15.3961V15.3689V15.3415V15.3142V15.2869V15.2595V15.2322V15.2048V15.1774V15.15V15.1226V15.0952V15.0677V15.0403V15.0128V14.9853V14.9578V14.9303V14.9028V14.8752V14.8477V14.8201V14.7926V14.765V14.7374V14.7098V14.6821V14.6545V14.6268V14.5992V14.5715V14.5438V14.5161V14.4884V14.4607V14.433V14.4052V14.3775V14.3497V14.3219V14.2941V14.2663V14.2385V14.2107V14.1829V14.155V14.1272V14.0993V14.0714V14.0436V14.0157V13.9878V13.9598V13.9319V13.904V13.876V13.8481V13.8201V13.7921V13.7641V13.7361V13.7081V13.6801V13.6521V13.6241V13.596V13.568V13.5399V13.5118V13.4838V13.4557V13.4276V13.3995V13.3714V13.3432V13.3151V13.287V13.2588V13.2307V13.2025V13.1743V13.1462V13.118V13.0898V13.0616V13.0334V13.0052V12.9769V12.9487V12.9205V12.8922V12.864V12.8357V12.8075V12.7792V12.7509V12.7226V12.6943V12.666V12.6377V12.6094V12.5811V12.5528V12.5244V12.4961V12.4678V12.4394V12.411V12.3827V12.3543V12.326V12.2976V12.2692V12.2408V12.2124V12.184V12.1556V12.1272V12.0988V12.0704V12.042V12.0135V11.9851V11.9567V11.9282V11.8998V11.8713V11.8429V11.8144V11.786V11.7575V11.729V11.7006V11.6721V11.6436V11.6151V11.5866V11.5582V11.5297V11.5012V11.4727V11.4442V11.4157V11.3872V11.3586V11.3301V11.3016V11.2731V11.2446V11.2161V11.1875V11.159V11.1305V11.1019V11.0734V11.0449V11.0163V10.9878V10.9593V10.9307V10.9022V10.8736V10.8451V10.8165V10.788V10.7594V10.7309V10.7023V10.6738V10.6452V10.6167V10.5881V10.5596V10.531V10.5025V10.4739V10.4453V10.4168V10.3882V10.3597V10.3311V10.3026V10.274V10.2455V10.2169V10.1883V10.1598V10.1312V10.1027V10.0741V10.0456V10.017V9.9885V9.95995V9.93141V9.90286V9.87432V9.84578V9.81724V9.78871V9.76017V9.73164V9.70311V9.67458V9.64605V9.61752V9.589V9.56048V9.53196V9.50345V9.47494V9.44642V9.41792V9.38941V9.36091V9.33241V9.30392V9.27542V9.24694V9.21845V9.18997V9.16149V9.13301V9.10454V9.07607V9.04761V9.01915V8.99069V8.96224V8.93379V8.90535V8.87691V8.84847V8.82004V8.79162V8.76319V8.73478V8.70637V8.67796V8.64956V8.62116V8.59277V8.56438V8.536V8.50762V8.47925V8.45089V8.42253V8.39417V8.36582V8.33748V8.30914V8.28081V8.25249V8.22417V8.19586V8.16755V8.13926V8.11096V8.08268V8.0544V8.02612V7.99786V7.9696V7.94135V7.9131V7.88486V7.85663V7.82841V7.80019V7.77199V7.74378V7.71559V7.68741V7.65923V7.63106V7.6029V7.57474V7.5466V7.51846V7.49033V7.46221V7.43409V7.40599V7.37789V7.34981V7.32173V7.29366V7.2656V7.23755V7.20951V7.18147V7.15345V7.12544V7.09743V7.06944V7.04145V7.01347V6.98551V6.95755V6.9296V6.90167V6.87374V6.84582V6.81792V6.79002V6.76214V6.73426V6.7064V6.67854V6.6507V6.62287V6.59504V6.56723V6.53943V6.51165V6.48387V6.4561V6.42835V6.4006V6.37287V6.34515V6.31744V6.28975V6.26206V6.23439V6.20673V6.17908V6.15144V6.12382V6.09621V6.06861V6.04102V6.01345V5.98588V5.95833V5.9308V5.90327V5.87576V5.84827V5.82078V5.79331V5.76585V5.73841V5.71098V5.68356V5.65616V5.62877V5.60139V5.57403V5.54668V5.51935V5.49203V5.46472V5.43743V5.41015V5.38289V5.35564V5.32841V5.30119V5.27399V5.2468V5.21962V5.19246V5.16532V5.13819V5.11107V5.08398V5.05689V5.02983V5.00277V4.97574V4.94872V4.92171V4.89472V4.86775V4.84079V4.81385V4.78693V4.76002V4.73313V4.70625V4.67939V4.65255V4.62573V4.59892V4.57213V4.54535V4.51859V4.49185V4.46513V4.43842V4.41174V4.38506V4.35841V4.33177V4.30516V4.27856V4.25197V4.22541V4.19886V4.17233V4.14582V4.11933V4.09286V4.0664V4.03996V4.01354V3.98715V3.96076V3.9344V3.90806V3.88173V3.85543V3.82914V3.80288V3.77663V3.7504V3.72419V3.698V3.67183V3.64568V3.61955V3.59344V3.56735V3.54128V3.51523V3.4892V3.4632V3.43721V3.41124V3.38529V3.35936V3.33346C3.5 3.18476 3.50059 3.08116 3.50406 3.00461C3.58057 3.00093 3.68449 3.00012 3.83333 3.00012C5.27012 3.00012 6.8269 2.98913 8.39241 2.97807L8.42676 2.97783C9.95684 2.96703 11.4946 2.95624 12.9399 2.9556C13.0615 3.14698 13.2242 3.30756 13.2911 3.3737C13.2948 3.37729 13.2981 3.3806 13.3012 3.38362C13.3429 3.425 13.3751 3.46216 13.4181 3.51183C13.443 3.54067 13.4717 3.57373 13.5079 3.61429ZM3.51749 2.87563C3.51751 2.87566 3.5173 2.8765 3.51682 2.87804C3.51723 2.87636 3.51747 2.87559 3.51749 2.87563ZM3.37775 3.01776C3.37622 3.01825 3.37538 3.01846 3.37535 3.01844C3.37532 3.01842 3.37608 3.01818 3.37775 3.01776ZM3.37535 17.8151C3.37539 17.8151 3.37622 17.8153 3.37776 17.8158C3.37608 17.8154 3.37532 17.8152 3.37535 17.8151ZM3.51682 17.9555C3.5173 17.9571 3.51751 17.9579 3.51749 17.9579C3.51747 17.958 3.51723 17.9572 3.51682 17.9555ZM18.5061 17.8233C18.5061 17.8233 18.5056 17.8236 18.5044 17.824L18.5061 17.8233ZM18.521 8.24957C18.5209 8.24922 18.521 8.24919 18.521 8.24949V8.24957Z" fill="url(#paint0_linear_4134_11842)" stroke="url(#paint1_linear_4134_11842)"/>
<path d="M16.3303 3.94305L16.6627 3.58828L16.3174 3.24605L16.3122 3.24088C15.8242 2.75726 15.322 2.25953 14.7362 1.7606C14.5669 1.58751 14.4835 1.38708 14.4835 1.22768C14.4835 1.04767 14.5645 0.8609 14.7049 0.715158C14.8478 0.566741 15.0133 0.5 15.1396 0.5H15.1493H15.159H15.1687H15.1784H15.188H15.1977H15.2074H15.2171H15.2268H15.2365H15.2462H15.2559H15.2656H15.2753H15.285H15.2947H15.3044H15.3141H15.3238H15.3335H15.3433H15.353H15.3627H15.3724H15.3821H15.3919H15.4016H15.4113H15.421H15.4308H15.4405H15.4502H15.46H15.4697H15.4795H15.4892H15.4989H15.5087H15.5184H15.5282H15.5379H15.5477H15.5574H15.5672H15.5769H15.5867H15.5964H15.6062H15.616H15.6257H15.6355H15.6452H15.655H15.6648H15.6746H15.6843H15.6941H15.7039H15.7136H15.7234H15.7332H15.743H15.7528H15.7625H15.7723H15.7821H15.7919H15.8017H15.8115H15.8213H15.8311H15.8409H15.8507H15.8605H15.8702H15.88H15.8898H15.8997H15.9095H15.9193H15.9291H15.9389H15.9487H15.9585H15.9683H15.9781H15.9879H15.9977H16.0076H16.0174H16.0272H16.037H16.0468H16.0567H16.0665H16.0763H16.0861H16.096H16.1058H16.1156H16.1254H16.1353H16.1451H16.1549H16.1648H16.1746H16.1844H16.1943H16.2041H16.214H16.2238H16.2337H16.2435H16.2533H16.2632H16.273H16.2829H16.2927H16.3026H16.3124H16.3223H16.3321H16.342H16.3518H16.3617H16.3716H16.3814H16.3913H16.4011H16.411H16.4209H16.4307H16.4406H16.4504H16.4603H16.4702H16.48H16.4899H16.4998H16.5096H16.5195H16.5294H16.5393H16.5491H16.559H16.5689H16.5788H16.5886H16.5985H16.6084H16.6183H16.6281H16.638H16.6479H16.6578H16.6677H16.6776H16.6874H16.6973H16.7072H16.7171H16.727H16.7369H16.7468H16.7566H16.7665H16.7764H16.7863H16.7962H16.8061H16.816H16.8259H16.8358H16.8457H16.8556H16.8655H16.8754H16.8853H16.8952H16.905H16.9149H16.9248H16.9347H16.9446H16.9545H16.9644H16.9743H16.9843H16.9942H17.0041H17.014H17.0239H17.0338H17.0437H17.0536H17.0635H17.0734H17.0833H17.0932H17.1031H17.113H17.1229H17.1328H17.1428H17.1527H17.1626H17.1725H17.1824H17.1923H17.2022H17.2121H17.222H17.232H17.2419H17.2518H17.2617H17.2716H17.2815H17.2914H17.3013H17.3113H17.3212H17.3311H17.341H17.3509H17.3608H17.3708H17.3807H17.3906H17.4005H17.4104H17.4203H17.4303H17.4402H17.4501H17.46H17.4699H17.4799H17.4898H17.4997H17.5096H17.5195H17.5294H17.5394H17.5493H17.5592H17.5691H17.579H17.589H17.5989H17.6088H17.6187H17.6286H17.6386H17.6485H17.6584H17.6683H17.6782H17.6882H17.6981H17.708H17.7179H17.7278H17.7378H17.7477H17.7576H17.7675H17.7774H17.7873H17.7973H17.8072H17.8171H17.827H17.8369H17.8469H17.8568H17.8667H17.8766H17.8865H17.8965H17.9064H17.9163H17.9262H17.9361H17.946H17.956H17.9659H17.9758H17.9857H17.9956H18.0055H18.0154H18.0254H18.0353H18.0452H18.0551H18.065H18.0749H18.0848H18.0948H18.1047H18.1146H18.1245H18.1344H18.1443H18.1542H18.1641H18.174H18.184H18.1939H18.2038H18.2137H18.2236H18.2335H18.2434H18.2533H18.2632H18.2731H18.283H18.2929H18.3028H18.3127H18.3226H18.3325H18.3424H18.3523H18.3622H18.3721H18.382H18.3919H18.4018H18.4117H18.4216H18.4315H18.4414H18.4513H18.4612H18.4711H18.481H18.4909H18.5008H18.5107H18.5206H18.5305H18.5404H18.5503H18.5602H18.57H18.5799H18.5898H18.5997H18.6096H18.6195H18.6294H18.6392H18.6491H18.659H18.6689H18.6788H18.6886H18.6985H18.7084H18.7183H18.7282H18.738H18.7479H18.7578H18.7677H18.7775H18.7874H18.7973H18.8071H18.817H18.8269H18.8368H18.8466H18.8565H18.8664H18.8762H18.8861H18.8959H18.9058H18.9157H18.9255H18.9354H18.9452H18.9551H18.965H18.9748H18.9847H18.9945H19.0044H19.0142H19.0241H19.0339H19.0438H19.0536H19.0635H19.0733H19.0831H19.093H19.1028H19.1127H19.1225H19.1323H19.1422H19.152H19.1619H19.1717H19.1815H19.1914H19.2012H19.211H19.2208H19.2307H19.2405H19.2503H19.2601H19.27H19.2798H19.2896H19.2994H19.3092H19.3191H19.3289H19.3387H19.3485H19.3583H19.3681H19.3779H19.3877H19.3975H19.4073H19.4171H19.4269H19.4367H19.4465H19.4563H19.4661H19.4759H19.4857H19.4955H19.5053H19.5151H19.5249H19.5347H19.5445H19.5542H19.564H19.5738H19.5836H19.5934H19.6031H19.6129H19.6227H19.6325H19.6422H19.652H19.6618H19.6715H19.6813H19.6911H19.7008H19.7106H19.7204H19.7301H19.7399H19.7496H19.7594H19.7691H19.7789H19.7886H19.7984H19.8081H19.8179H19.8276H19.8373H19.8471H19.8568H19.8666H19.8763H19.886H19.8957H19.9055H19.9152H19.9249H19.9347H19.9444H19.9541H19.9638H19.9735H19.9832H19.993H20.0027H20.0124H20.0221H20.0318H20.0415H20.0512H20.0609H20.0706H20.0803H20.09H20.0997H20.1094H20.1191H20.1288H20.1384H20.1481H20.1578H20.1675H20.1772C20.5659 0.5 20.8333 0.771432 20.8333 1.14583V1.1559V1.16597V1.17604V1.1861V1.19616V1.20622V1.21628V1.22634V1.2364V1.24645V1.2565V1.26655V1.2766V1.28664V1.29669V1.30673V1.31677V1.32681V1.33685V1.34688V1.35692V1.36695V1.37698V1.38701V1.39704V1.40706V1.41709V1.42711V1.43713V1.44715V1.45716V1.46718V1.47719V1.48721V1.49722V1.50723V1.51723V1.52724V1.53724V1.54724V1.55725V1.56724V1.57724V1.58724V1.59723V1.60723V1.61722V1.62721V1.6372V1.64718V1.65717V1.66715V1.67714V1.68712V1.6971V1.70707V1.71705V1.72703V1.737V1.74697V1.75694V1.76691V1.77688V1.78685V1.79681V1.80678V1.81674V1.8267V1.83666V1.84662V1.85657V1.86653V1.87648V1.88644V1.89639V1.90634V1.91629V1.92624V1.93618V1.94613V1.95607V1.96601V1.97595V1.98589V1.99583V2.00577V2.01571V2.02564V2.03557V2.04551V2.05544V2.06537V2.0753V2.08523V2.09515V2.10508V2.115V2.12492V2.13485V2.14477V2.15469V2.1646V2.17452V2.18444V2.19435V2.20427V2.21418V2.22409V2.234V2.24391V2.25382V2.26373V2.27363V2.28354V2.29344V2.30335V2.31325V2.32315V2.33305V2.34295V2.35285V2.36274V2.37264V2.38254V2.39243V2.40232V2.41222V2.42211V2.432V2.44189V2.45178V2.46166V2.47155V2.48144V2.49132V2.50121V2.51109V2.52097V2.53085V2.54073V2.55061V2.56049V2.57037V2.58025V2.59012V2.6V2.60987V2.61975V2.62962V2.63949V2.64937V2.65924V2.66911V2.67898V2.68885V2.69871V2.70858V2.71845V2.72831V2.73818V2.74804V2.75791V2.76777V2.77763V2.78749V2.79735V2.80721V2.81707V2.82693V2.83679V2.84665V2.85651V2.86636V2.87622V2.88607V2.89593V2.90578V2.91564V2.92549V2.93534V2.94519V2.95505V2.9649V2.97475V2.9846V2.99445V3.00429V3.01414V3.02399V3.03384V3.04368V3.05353V3.06338V3.07322V3.08307V3.09291V3.10275V3.1126V3.12244V3.13228V3.14213V3.15197V3.16181V3.17165V3.18149V3.19133V3.20117V3.21101V3.22085V3.23069V3.24053V3.25037V3.2602V3.27004V3.27988V3.28972V3.29955V3.30939V3.31923V3.32906V3.3389V3.34873V3.35857V3.3684V3.37824V3.38807V3.39791V3.40774V3.41757V3.42741V3.43724V3.44707V3.45691V3.46674V3.47657V3.4864V3.49624V3.50607V3.5159V3.52573V3.53557V3.5454V3.55523V3.56506V3.57489V3.58472V3.59456V3.60439V3.61422V3.62405V3.63388V3.64371V3.65354V3.66337V3.6732V3.68304V3.69287V3.7027V3.71253V3.72236V3.73219V3.74202V3.75185V3.76168V3.77152V3.78135V3.79118V3.80101V3.81084V3.82067V3.8305V3.84034V3.85017V3.86V3.86983V3.87967V3.8895V3.89933V3.90916V3.919V3.92883V3.93866V3.9485V3.95833V3.96816V3.978V3.98783V3.99767V4.0075V4.01734V4.02717V4.03701V4.04684V4.05668V4.06652V4.07635V4.08619V4.09603V4.10587V4.1157V4.12554V4.13538V4.14522V4.15506V4.1649V4.17474V4.18458V4.19442V4.20426V4.2141V4.22394V4.23379V4.24363V4.25347V4.26332V4.27316V4.283V4.29285V4.30269V4.31254V4.32239V4.33223V4.34208V4.35193V4.36178V4.37162V4.38147V4.39132V4.40117V4.41102V4.42088V4.43073V4.44058V4.45043V4.46029V4.47014V4.48V4.48985V4.49971V4.50956V4.51942V4.52928V4.53914V4.549V4.55886V4.56872V4.57858V4.58844V4.5983V4.60816V4.61803V4.62789V4.63776V4.64762V4.65749V4.66736V4.67722V4.68709V4.69696V4.70683V4.7167V4.72658V4.73645V4.74632V4.7562V4.76607V4.77595V4.78582V4.7957V4.80558V4.81546V4.82534V4.83522V4.8451V4.85498V4.86486V4.87475V4.88463V4.89452V4.90441V4.91429V4.92418V4.93407V4.94396V4.95385V4.96375V4.97364V4.98353V4.99343V5.00333V5.01322V5.02312V5.03302V5.04292V5.05282V5.06272V5.07263V5.08253V5.09244V5.10234V5.11225V5.12216V5.13207V5.14198V5.15189V5.1618V5.17172V5.18163V5.19155V5.20147V5.21138V5.2213V5.23122V5.24115V5.25107V5.26099V5.27092V5.28085V5.29077V5.3007V5.31063V5.32056V5.3305V5.34043V5.35036V5.3603V5.37024V5.38018V5.39012V5.40006V5.41V5.41994V5.42989V5.43983V5.44978V5.45973V5.46968V5.47963V5.48959V5.49954V5.5095V5.51945V5.52941V5.53937V5.54933V5.55929V5.56926V5.57922V5.58919V5.59916V5.60913V5.6191V5.62907V5.63904V5.64902V5.659V5.66897V5.67895V5.68893V5.69892V5.7089V5.71889V5.72887V5.73886V5.74885V5.75884V5.76884V5.77883V5.78883V5.79883V5.80882V5.81883V5.82883V5.83883V5.84884V5.85885V5.86885V5.87886V5.88888V5.89889V5.90891V5.91892V5.92894V5.93896V5.94898V5.95901V5.96903V5.97906V5.98909V5.99912V6.00915V6.01919V6.02922V6.03926V6.0493V6.05934V6.06938V6.07943V6.08947V6.09952V6.10957V6.11962V6.12967V6.13973V6.14979V6.15985V6.16991V6.17997V6.19003V6.2001V6.21017V6.22024C20.8333 6.379 20.7945 6.48069 20.747 6.54909C20.6988 6.61858 20.6195 6.6856 20.4884 6.73757L20.4514 6.75226L20.4171 6.77262C20.2322 6.88258 20.0376 6.88506 19.7398 6.71973L19.662 6.64263L19.5541 6.53564C19.1296 6.03309 18.6256 5.53367 18.0631 4.97612L18.0517 4.9648L17.1997 4.12045V5.19336L13.9618 8.4023C13.6991 8.66267 13.4117 8.7169 13.0902 8.61754C12.6314 8.40152 12.5568 7.90136 12.7823 7.62355L13.0141 7.39382L13.0207 7.38731L13.027 7.38055C13.56 6.81166 14.1141 6.24214 14.6722 5.66862L14.6738 5.6669C15.2301 5.09516 15.7903 4.51942 16.3303 3.94305Z" fill="url(#paint2_linear_4134_11842)" stroke="url(#paint3_linear_4134_11842)"/>
<path d="M1 5V19C1 19.5523 1.44771 20 2 20H16.8333" stroke="url(#paint4_linear_4134_11842)" stroke-width="1.4" stroke-linecap="round"/>
<defs>
<linearGradient id="paint0_linear_4134_11842" x1="4.65996" y1="2.45557" x2="12.8399" y2="19.1076" gradientUnits="userSpaceOnUse">
<stop stop-color="#FEB49C"/>
<stop offset="1" stop-color="#FD6B87"/>
</linearGradient>
<linearGradient id="paint1_linear_4134_11842" x1="4.65996" y1="2.45557" x2="12.8399" y2="19.1076" gradientUnits="userSpaceOnUse">
<stop stop-color="#FEB49C"/>
<stop offset="1" stop-color="#FD6B87"/>
</linearGradient>
<linearGradient id="paint2_linear_4134_11842" x1="13.1074" y1="-6.3383e-08" x2="17.8504" y2="9.58194" gradientUnits="userSpaceOnUse">
<stop stop-color="#FEB49C"/>
<stop offset="1" stop-color="#FD6B87"/>
</linearGradient>
<linearGradient id="paint3_linear_4134_11842" x1="13.1074" y1="-6.3383e-08" x2="17.8504" y2="9.58194" gradientUnits="userSpaceOnUse">
<stop stop-color="#FEB49C"/>
<stop offset="1" stop-color="#FD6B87"/>
</linearGradient>
<linearGradient id="paint4_linear_4134_11842" x1="2.64039" y1="5" x2="10.1536" y2="20.9991" gradientUnits="userSpaceOnUse">
<stop stop-color="#FEB49C"/>
<stop offset="1" stop-color="#FD6B87"/>
</linearGradient>
</defs>
</svg>
