<svg width="18" height="22" viewBox="0 0 18 22" fill="none" xmlns="http://www.w3.org/2000/svg">
<mask id="mask0_4134_11853" style="mask-type:luminance" maskUnits="userSpaceOnUse" x="0" y="0" width="18" height="22">
<path d="M17.6 0H0V22H17.6V0Z" fill="white"/>
</mask>
<g mask="url(#mask0_4134_11853)">
<path d="M16.4137 12.3832L1.21979 21.2847C0.676608 21.6029 0 21.2018 0 20.5616V2.81292C0 2.19245 0.639319 1.78958 1.18118 2.06861L5.59438 4.34088V9.60084C1.93919 10.3106 1.7897 12.6895 2.28712 14.1656C2.47038 14.7096 2.8611 15.1514 3.33619 15.4597C6.76082 17.681 9.63677 14.1217 9.63677 12.8153C9.63677 12.0827 9.70519 8.52944 9.75964 6.72038L16.4377 10.9516C16.9624 11.2842 16.9492 12.0695 16.4137 12.3832Z" fill="#00BB45"/>
<path d="M12.0047 0V2.25426L8.73794 2.58823V12.3336C8.73794 12.654 8.71165 12.9809 8.55996 13.2612C8.34304 13.6619 7.99456 14.0463 7.67347 14.3432C7.3394 14.6522 6.93339 14.8707 6.49955 14.9945C4.25863 15.6346 3.27226 14.6776 2.94358 13.7848C2.81356 13.4316 2.82951 13.0392 2.935 12.6774C3.52449 10.6553 5.52924 10.4367 6.53277 10.6034V0.500951L12.0047 0Z" fill="#00BB45"/>
</g>
</svg>
