<svg width="22" height="22" viewBox="0 0 22 22" fill="none" xmlns="http://www.w3.org/2000/svg">
<g clip-path="url(#clip0_4134_11881)">
<path d="M16.5 3.66683C16.5 2.65431 17.3208 1.8335 18.3333 1.8335C19.3459 1.8335 20.1667 2.65431 20.1667 3.66683V18.3335C20.1667 19.346 19.3459 20.1668 18.3333 20.1668C17.3208 20.1668 16.5 19.346 16.5 18.3335V3.66683Z" fill="url(#paint0_linear_4134_11881)"/>
<path d="M9.16663 9.16683C9.16663 8.15431 9.98744 7.3335 11 7.3335C12.0125 7.3335 12.8333 8.15431 12.8333 9.16683V18.3335C12.8333 19.346 12.0125 20.1668 11 20.1668C9.98744 20.1668 9.16663 19.346 9.16663 18.3335V9.16683Z" fill="url(#paint1_linear_4134_11881)"/>
<path d="M1.83337 12.8333C1.83337 11.8208 2.65419 11 3.66671 11C4.67923 11 5.50004 11.8208 5.50004 12.8333V18.3333C5.50004 19.3459 4.67923 20.1667 3.66671 20.1667C2.65419 20.1667 1.83337 19.3459 1.83337 18.3333V12.8333Z" fill="url(#paint2_linear_4134_11881)"/>
</g>
<defs>
<linearGradient id="paint0_linear_4134_11881" x1="17.3021" y1="18.4503" x2="22.8633" y2="16.987" gradientUnits="userSpaceOnUse">
<stop stop-color="#FEC73A"/>
<stop offset="1" stop-color="#FFA825"/>
</linearGradient>
<linearGradient id="paint1_linear_4134_11881" x1="9.96871" y1="18.9652" x2="15.1788" y2="17.0068" gradientUnits="userSpaceOnUse">
<stop stop-color="#FEC73A"/>
<stop offset="1" stop-color="#FFA825"/>
</linearGradient>
<linearGradient id="paint2_linear_4134_11881" x1="2.63546" y1="19.3084" x2="7.29213" y2="16.8578" gradientUnits="userSpaceOnUse">
<stop stop-color="#FEC73A"/>
<stop offset="1" stop-color="#FFA825"/>
</linearGradient>
<clipPath id="clip0_4134_11881">
<rect width="22" height="22" fill="white"/>
</clipPath>
</defs>
</svg>
