<svg width="24" height="18" viewBox="0 0 24 18" fill="none" xmlns="http://www.w3.org/2000/svg">
<g clip-path="url(#clip0_4134_11832)">
<path d="M21.6954 18H2.30458C1.02626 18 0 16.9811 0 15.712V2.28798C0 1.01887 1.02626 0 2.30458 0H21.6774C22.9557 0 23.982 1.01887 23.982 2.28798V15.712C24 16.9811 22.9557 18 21.6954 18Z" fill="url(#paint0_linear_4134_11832)"/>
<path d="M14.1448 7.38154V6.01664C14.1448 5.89408 14.0445 5.7938 13.9219 5.7938C13.7994 5.7938 13.6991 5.89408 13.6991 6.01664V7.34812C13.6991 8.23948 13.0027 8.99714 12.1058 9.025C11.181 9.05285 10.4178 8.30633 10.4178 7.38711V6.01664C10.4178 5.89408 10.3175 5.7938 10.1949 5.7938C10.0723 5.7938 9.97207 5.89408 9.97207 6.01664V7.38154C9.97207 8.41775 10.7353 9.28684 11.7325 9.44282V10.1559H10.9804C10.7743 10.1559 10.6072 10.323 10.6072 10.5292V10.7242C10.6072 10.7799 10.6517 10.8244 10.7074 10.8244H13.4205C13.4762 10.8244 13.5208 10.7799 13.5208 10.7242V10.5292C13.5208 10.323 13.3537 10.1559 13.1476 10.1559H12.3955V9.43725C13.3871 9.28126 14.1448 8.41775 14.1448 7.38154Z" fill="white"/>
<path d="M12.0615 8.77994C11.2927 8.77994 10.6687 8.15041 10.6687 7.38718V5.34261C10.6687 4.57381 11.2983 3.94985 12.0615 3.94985C12.8303 3.94985 13.4543 4.57938 13.4543 5.34261V7.38718C13.4543 8.15598 12.8303 8.77994 12.0615 8.77994Z" fill="white"/>
<path d="M13.4541 6.50138C13.4151 6.50138 13.3816 6.46795 13.3816 6.42896V5.97213C13.3816 5.93313 13.4151 5.89971 13.4541 5.89971C13.4931 5.89971 13.5265 5.93313 13.5265 5.97213V6.42896C13.5265 6.46795 13.4931 6.50138 13.4541 6.50138Z" fill="white"/>
<path d="M10.6688 6.50138C10.6298 6.50138 10.602 6.46795 10.602 6.43453V5.96656C10.602 5.92756 10.6354 5.89971 10.6688 5.89971C10.7078 5.89971 10.7357 5.93313 10.7357 5.96656V6.43453C10.7357 6.46795 10.7078 6.50138 10.6688 6.50138Z" fill="white"/>
<path d="M10.2006 6.21164V6.1615C10.2006 6.14479 10.2173 6.12808 10.234 6.12808H10.7688C10.7855 6.12808 10.8023 6.14479 10.8023 6.1615V6.21164C10.8023 6.22835 10.7855 6.24507 10.7688 6.24507H10.234C10.2173 6.25064 10.2006 6.23393 10.2006 6.21164Z" fill="white"/>
<path d="M13.2979 6.21164V6.1615C13.2979 6.14479 13.3146 6.12808 13.3313 6.12808H13.8661C13.8828 6.12808 13.8995 6.14479 13.8995 6.1615V6.21164C13.8995 6.22835 13.8828 6.24507 13.8661 6.24507H13.3313C13.3146 6.25064 13.2979 6.23393 13.2979 6.21164Z" fill="white"/>
<path d="M7.63808 7.26465C7.69379 7.26465 7.74393 7.22008 7.74393 7.1588V6.19501C7.74393 6.1393 7.69936 6.08916 7.63808 6.08916C7.58237 6.08916 7.53223 6.13373 7.53223 6.19501V7.1588C7.5378 7.22008 7.58237 7.26465 7.63808 7.26465Z" fill="white"/>
<path d="M6.10585 7.26465C6.16156 7.26465 6.2117 7.22008 6.2117 7.1588V6.19501C6.2117 6.1393 6.16713 6.08916 6.10585 6.08916C6.05014 6.08916 6 6.13373 6 6.19501V7.1588C6 7.22008 6.04457 7.26465 6.10585 7.26465Z" fill="white"/>
<path d="M7.27011 7.81062C7.32582 7.81062 7.37596 7.76605 7.37596 7.70477V5.65463C7.37596 5.59892 7.33139 5.54878 7.27011 5.54878C7.2144 5.54878 7.16426 5.59335 7.16426 5.65463V7.70477C7.16426 7.76048 7.20883 7.81062 7.27011 7.81062Z" fill="white"/>
<path d="M6.48495 7.81062C6.54066 7.81062 6.5908 7.76605 6.5908 7.70477V5.65463C6.5908 5.59892 6.54623 5.54878 6.48495 5.54878C6.42924 5.54878 6.3791 5.59335 6.3791 5.65463V7.70477C6.3791 7.76048 6.42367 7.81062 6.48495 7.81062Z" fill="white"/>
<path d="M6.88046 8.4012C6.93617 8.4012 6.98631 8.35663 6.98631 8.29535V5.06415C6.98631 5.00844 6.94174 4.9583 6.88046 4.9583C6.82475 4.9583 6.77461 5.00287 6.77461 5.06415V8.29535C6.77461 8.35106 6.82475 8.4012 6.88046 8.4012Z" fill="white"/>
<path d="M16.3568 6.09473C16.3011 6.09473 16.251 6.1393 16.251 6.20058V7.16436C16.251 7.22007 16.2955 7.27021 16.3568 7.27021C16.4125 7.27021 16.4627 7.22565 16.4627 7.16436V6.19501C16.4627 6.1393 16.4181 6.09473 16.3568 6.09473Z" fill="white"/>
<path d="M17.8943 6.09473C17.8386 6.09473 17.7885 6.1393 17.7885 6.20058V7.16436C17.7885 7.22007 17.833 7.27021 17.8943 7.27021C17.95 7.27021 18.0002 7.22565 18.0002 7.16436V6.19501C18.0002 6.1393 17.95 6.09473 17.8943 6.09473Z" fill="white"/>
<path d="M16.7301 5.54878C16.6744 5.54878 16.6242 5.59335 16.6242 5.65463V7.70477C16.6242 7.76048 16.6688 7.81062 16.7301 7.81062C16.7858 7.81062 16.8359 7.76605 16.8359 7.70477V5.65463C16.8359 5.59892 16.7858 5.54878 16.7301 5.54878Z" fill="white"/>
<path d="M17.5158 5.54878C17.4601 5.54878 17.41 5.59335 17.41 5.65463V7.70477C17.41 7.76048 17.4545 7.81062 17.5158 7.81062C17.5715 7.81062 17.6217 7.76605 17.6217 7.70477V5.65463C17.6217 5.59892 17.5715 5.54878 17.5158 5.54878Z" fill="white"/>
<path d="M17.1203 4.9583C17.0646 4.9583 17.0145 5.00287 17.0145 5.06415V8.29535C17.0145 8.35106 17.059 8.4012 17.1203 8.4012C17.176 8.4012 17.2262 8.35663 17.2262 8.29535V5.06415C17.2206 5.00287 17.176 4.9583 17.1203 4.9583Z" fill="white"/>
<path d="M12.0614 11.5542C10.0725 11.5542 8.37895 10.2729 7.75499 8.49018C7.73271 8.49018 7.71042 8.49018 7.68257 8.49018C7.54329 8.49018 7.40402 8.47347 7.27031 8.45118C7.89427 10.5013 9.80513 11.9999 12.0558 11.9999C14.2954 11.9999 16.1951 10.5236 16.8302 8.49018C16.6742 8.49018 16.5238 8.47347 16.3789 8.44004C15.7773 10.2506 14.0725 11.5542 12.0614 11.5542Z" fill="white"/>
<path d="M12.0615 2.44568C13.6715 2.44568 15.0866 3.28691 15.8944 4.54596C16.0281 4.47911 16.1729 4.4234 16.3233 4.3844C15.4431 2.95822 13.861 2 12.0615 2C10.2844 2 8.72447 2.93036 7.83867 4.32869C8.0058 4.33983 8.16179 4.37326 8.31221 4.41783C9.13672 3.22563 10.5072 2.44568 12.0615 2.44568Z" fill="white"/>
<path d="M2.80859 15.3844V14.4727C2.80859 14.1152 3.20469 13.8829 3.52877 14.0616L4.32097 14.5264L5.11317 14.9911C5.43725 15.1699 5.43725 15.6346 5.11317 15.8134L4.32097 16.2781L3.52877 16.7429C3.20469 16.9216 2.80859 16.6892 2.80859 16.3317V15.3844Z" fill="white"/>
<path d="M20.3809 16.1708H7.4717C7.02159 16.1708 6.6615 15.8133 6.6615 15.3664C6.6615 14.9195 7.02159 14.562 7.4717 14.562H20.3629C20.813 14.562 21.1731 14.9195 21.1731 15.3664C21.1731 15.8133 20.813 16.1708 20.3809 16.1708Z" fill="white"/>
</g>
<defs>
<linearGradient id="paint0_linear_4134_11832" x1="2.48464" y1="-1.24499e-07" x2="10.1427" y2="20.5837" gradientUnits="userSpaceOnUse">
<stop stop-color="#CE80FF"/>
<stop offset="1" stop-color="#8A75FF"/>
</linearGradient>
<clipPath id="clip0_4134_11832">
<rect width="24" height="18" fill="white"/>
</clipPath>
</defs>
</svg>
