<svg width="22" height="22" viewBox="0 0 22 22" fill="none" xmlns="http://www.w3.org/2000/svg">
<g clip-path="url(#clip0_4134_11900)">
<path d="M22 4.51581C21.8974 7.4686 19.1356 9.62311 16.314 8.87633C15.9891 8.79049 15.801 8.86774 15.5787 9.09092C13.4069 11.2798 11.2351 13.4686 9.05478 15.6403C8.83247 15.8635 8.76406 16.0523 8.84102 16.3785C9.26853 18.1639 8.79827 19.7089 7.41311 20.9021C6.04506 22.078 4.46325 22.2926 2.77883 21.6403C2.12046 21.3828 2.0264 20.8935 2.53087 20.3871C3.00114 19.9064 3.47996 19.4429 3.95023 18.9622C4.29224 18.6102 4.32644 18.2154 4.04428 17.9493C3.77067 17.6918 3.39446 17.7261 3.06099 18.0523C2.57362 18.533 2.09481 19.0223 1.60744 19.5029C1.12007 19.9836 0.632698 19.8892 0.376188 19.254C-0.290738 17.5459 -0.0684289 15.9493 1.12007 14.5673C2.30001 13.1939 3.83052 12.7304 5.59189 13.151C5.9339 13.2368 6.13056 13.1596 6.36142 12.9278C8.5161 10.7476 10.6879 8.5759 12.8597 6.40422C13.0991 6.17246 13.1589 5.97504 13.082 5.63169C12.6716 3.88062 13.1247 2.35272 14.4671 1.16817C15.8181 -0.0421301 17.3999 -0.291057 19.0929 0.344136C19.8367 0.627398 19.9222 1.0995 19.3579 1.67461C18.8962 2.13813 18.4259 2.60165 17.9728 3.07375C17.6479 3.39993 17.6222 3.79478 17.8787 4.06087C18.1352 4.32697 18.5456 4.30122 18.862 3.99221C19.3579 3.50294 19.8453 2.9965 20.3498 2.50723C20.82 2.04371 21.3245 2.12954 21.5468 2.75615C21.7349 3.32268 21.8461 3.92354 22 4.51581Z" fill="url(#paint0_linear_4134_11900)"/>
<path d="M11.4574 15.2023C12.6715 13.9835 13.8686 12.7817 15.1084 11.5371C16.1943 12.4126 17.3486 13.2882 18.4601 14.2324C19.3323 14.9706 20.1702 15.7431 20.9654 16.5586C22.3847 18.0092 22.171 20.3096 20.5378 21.4599C19.3151 22.3182 17.417 22.1466 16.314 20.9534C14.9288 19.4427 13.6292 17.8547 12.2953 16.2839C11.9875 15.932 11.7139 15.5457 11.4574 15.2023ZM19.1014 19.168C19.3151 18.9448 19.3323 18.6015 19.1698 18.3354C19.1356 18.2753 19.0928 18.2238 19.0501 18.1809C18.2635 17.374 17.4683 16.5757 16.6645 15.7775C16.3054 15.4255 15.9292 15.3998 15.6556 15.7002C15.3991 15.9749 15.4333 16.3526 15.7582 16.6873C16.2028 17.1508 16.6645 17.5972 17.1177 18.0521C17.4768 18.4126 17.8188 18.8161 18.2207 19.1251C18.4003 19.2624 18.7252 19.3053 18.956 19.2538C19.0073 19.2453 19.0586 19.2109 19.1014 19.168Z" fill="url(#paint1_linear_4134_11900)"/>
<path d="M7.27726 10.0692C6.15716 8.92755 5.01997 7.78592 3.86567 6.61854C3.70322 6.77304 3.54931 6.92755 3.39541 7.06489C3.06194 7.33957 2.66008 7.3224 2.42922 6.9533C1.67679 5.70867 0.907259 4.47261 0.214683 3.19364C-0.229934 2.36961 0.0436761 1.3224 0.710602 0.670038C1.39463 0.00909353 2.41212 -0.214083 3.23295 0.240853C4.4813 0.927549 5.69544 1.68291 6.90959 2.42111C7.29436 2.66145 7.32856 3.07347 7.0293 3.41682C6.90104 3.56274 6.73003 3.67433 6.55903 3.82884C7.76462 5.03055 8.91037 6.17218 10.0476 7.30523C9.11558 8.23227 8.22634 9.12498 7.27726 10.0692Z" fill="url(#paint2_linear_4134_11900)"/>
</g>
<defs>
<linearGradient id="paint0_linear_4134_11900" x1="2.28376" y1="0.00537094" x2="13.6802" y2="22.9931" gradientUnits="userSpaceOnUse">
<stop stop-color="#CE80FF"/>
<stop offset="1" stop-color="#8A75FF"/>
</linearGradient>
<linearGradient id="paint1_linear_4134_11900" x1="12.5402" y1="11.5371" x2="17.9612" y2="22.4647" gradientUnits="userSpaceOnUse">
<stop stop-color="#CE80FF"/>
<stop offset="1" stop-color="#8A75FF"/>
</linearGradient>
<linearGradient id="paint2_linear_4134_11900" x1="1.03867" y1="0.00195306" x2="6.25904" y2="10.5156" gradientUnits="userSpaceOnUse">
<stop stop-color="#CE80FF"/>
<stop offset="1" stop-color="#8A75FF"/>
</linearGradient>
<clipPath id="clip0_4134_11900">
<rect width="22" height="22" fill="white"/>
</clipPath>
</defs>
</svg>
