<?xml version="1.0" standalone="no"?>
<!DOCTYPE svg PUBLIC "-//W3C//DTD SVG 20010904//EN"
 "http://www.w3.org/TR/2001/REC-SVG-20010904/DTD/svg10.dtd">
<svg version="1.0" xmlns="http://www.w3.org/2000/svg"
 width="200.000000pt" height="200.000000pt" viewBox="0 0 200.000000 200.000000"
 preserveAspectRatio="xMidYMid meet">

<g transform="translate(0.000000,200.000000) scale(0.100000,-0.100000)"
fill="#000000" stroke="none">
<path d="M815 1884 c-317 -71 -576 -305 -674 -609 -16 -50 -33 -120 -36 -155
-4 -37 -15 -74 -24 -85 -56 -67 -71 -101 -71 -163 0 -48 4 -66 19 -81 10 -10
22 -29 26 -41 15 -48 102 -74 159 -48 46 20 60 55 64 158 5 111 -10 161 -57
187 -33 20 -33 33 0 163 71 271 300 498 577 572 120 32 308 29 425 -6 108 -32
183 -69 264 -130 161 -122 269 -292 310 -491 l17 -82 -42 -40 -42 -40 0 -117
0 -118 34 -34 c28 -28 41 -34 78 -34 52 0 77 16 117 76 27 39 31 54 31 113 0
54 -4 73 -20 91 -11 13 -20 26 -20 30 0 3 -8 15 -18 26 -12 13 -25 54 -35 117
-59 348 -309 627 -652 728 -96 28 -330 35 -430 13z"/>
<path d="M750 913 c0 -82 4 -106 24 -148 28 -62 80 -108 146 -132 l51 -18 -3
-85 -3 -85 -122 -6 c-68 -3 -125 -8 -128 -11 -8 -7 160 -18 285 -18 125 0 293
11 285 18 -3 3 -60 8 -128 11 l-122 6 0 84 0 84 45 15 c59 20 141 103 158 158
17 60 16 224 -2 224 -11 0 -15 -24 -18 -102 -4 -111 -15 -142 -65 -192 -90
-91 -230 -86 -314 13 -46 52 -59 98 -59 200 0 65 -3 81 -15 81 -12 0 -15 -17
-15 -97z"/>
<path d="M250 545 c-19 -23 -5 -56 57 -130 114 -136 269 -237 449 -291 81 -25
104 -27 244 -27 126 0 169 4 231 21 159 43 298 124 411 239 94 95 119 132 116
168 -3 25 -8 30 -34 33 -27 3 -37 -5 -92 -72 -272 -332 -754 -398 -1097 -152
-65 47 -150 130 -187 184 -22 33 -35 42 -57 42 -16 0 -34 -7 -41 -15z"/>
</g>
</svg>
