<svg width="92" height="92" viewBox="0 0 92 92" fill="none" xmlns="http://www.w3.org/2000/svg">
<circle cx="46" cy="46" r="46" fill="#E9F6F0"/>
<g clip-path="url(#clip0_2136_8532)">
<path d="M45.9496 66.9797C41.0856 66.9797 36.2014 66.9797 31.3374 66.9797C30.0054 66.9797 29.8641 66.8385 29.8843 65.567C29.9852 58.0792 36.2216 51.2575 43.6286 50.208C52.0851 48.997 60.2187 54.5876 61.8535 63.1047C62.015 63.9524 62.0553 64.8404 62.1562 65.7082C62.2572 66.6568 61.8333 67.0201 60.8646 67.0201C55.8996 66.9596 50.9145 66.9797 45.9496 66.9797Z" fill="#00BB45"/>
<path d="M37.1296 38.6836C37.1498 33.7793 41.1662 29.8437 46.1109 29.8638C50.9547 29.884 54.9105 33.9004 54.8903 38.7846C54.8701 43.6889 50.8538 47.6447 45.9091 47.6044C41.0652 47.5842 37.1296 43.5678 37.1296 38.6836Z" fill="#00BB45"/>
<path d="M57.9986 31.4179C57.595 28.7134 55.3749 26.675 52.731 26.6346C48.2504 26.5741 43.7901 26.5741 39.3095 26.6346C36.6656 26.675 34.4657 28.6731 34.0217 31.3977C35.3537 31.7206 35.5556 32.7096 35.5354 33.9407C35.4748 37.2709 35.5152 40.601 35.5152 43.9311C35.5152 45.4448 34.9703 45.9897 33.4566 46.0099C33.0933 46.0099 32.7098 46.0301 32.3465 46.0099C31.3374 45.9696 30.6916 45.3641 30.6714 44.3751C30.6512 40.6414 30.631 36.9076 30.7117 33.1738C30.7319 32.649 31.2567 31.9628 31.7411 31.6399C32.1851 31.3574 32.3869 31.1152 32.4878 30.6106C33.2144 27.3814 36.161 25.02 39.4912 25.02C43.8304 24.9998 48.1697 24.9998 52.5089 25.02C55.8996 25.0402 58.7656 27.3814 59.5729 30.6913C59.6536 31.0344 59.9967 31.3775 60.3196 31.5592C61.0058 31.9427 61.3691 32.4472 61.3691 33.2545C61.3691 36.9278 61.3691 40.5808 61.3691 44.254C61.3691 45.3641 60.7233 45.9696 59.6132 46.0099C59.2701 46.0301 58.9472 46.0099 58.6041 46.0099C57.0904 46.0099 56.5455 45.465 56.5455 43.9513C56.5455 40.5203 56.5657 37.0892 56.5253 33.6582C56.4849 32.5279 56.8078 31.7408 57.9986 31.4179Z" fill="#00BB45"/>
<path d="M27.4421 38.6229C27.4421 37.3716 27.3815 36.1405 27.4825 34.9093C27.5026 34.5662 27.9063 34.0213 28.209 33.9406C28.8145 33.8195 29.0567 34.3038 29.0567 34.9093C29.0567 37.4523 29.0567 40.0155 29.0567 42.5585C29.0567 43.1438 28.8145 43.6484 28.209 43.5273C27.9063 43.4667 27.5026 42.9218 27.4825 42.5585C27.4017 41.2467 27.4421 39.9348 27.4421 38.6229Z" fill="#00BB45"/>
<path d="M64.578 38.7239C64.578 39.9752 64.578 41.2063 64.578 42.4576C64.578 43.0631 64.3963 43.6484 63.7303 43.5071C63.4276 43.4466 63.0037 42.8209 63.0037 42.4576C62.9432 39.9752 62.9836 37.4927 62.9634 35.0103C62.9634 34.4048 63.145 33.8195 63.811 33.9608C64.1138 34.0213 64.5174 34.6268 64.5376 35.0103C64.6385 36.2414 64.578 37.4927 64.578 38.7239Z" fill="#00BB45"/>
<path d="M26.6348 38.7238C26.6348 39.4908 26.7155 40.2779 26.5944 41.0247C26.5339 41.3678 26.0697 41.6301 25.7871 41.9329C25.5449 41.6301 25.0807 41.3476 25.0605 41.0247C24.9798 39.4908 24.9798 37.9367 25.0605 36.4028C25.0807 36.0799 25.5853 35.7974 25.8679 35.4946C26.11 35.7974 26.5339 36.0799 26.5944 36.4028C26.6953 37.1698 26.6348 37.9569 26.6348 38.7238Z" fill="#00BB45"/>
<path d="M67 38.6431C67 39.3495 66.9798 40.0559 67 40.7623C67.0202 41.3476 66.9193 41.9127 66.2129 41.9329C65.5065 41.9531 65.3652 41.4283 65.3854 40.8229C65.4056 39.4101 65.345 37.9973 65.4258 36.6047C65.4459 36.2212 65.8698 35.6157 66.1725 35.5754C66.8587 35.4745 67.0202 36.0598 67 36.6451C66.9798 37.3111 67 37.9771 67 38.6431Z" fill="#00BB45"/>
</g>
<defs>
<clipPath id="clip0_2136_8532">
<rect width="42" height="42" fill="white" transform="translate(25 25)"/>
</clipPath>
</defs>
</svg>
