<svg width="92" height="92" viewBox="0 0 92 92" fill="none" xmlns="http://www.w3.org/2000/svg">
<circle cx="46" cy="46" r="46" fill="#E9F6F0"/>
<g clip-path="url(#clip0_2135_8511)">
<path d="M73.5061 54.6933C70.5857 51.9314 67.1446 50.5731 63.1376 50.8447C59.7645 51.0937 56.8894 52.4521 54.535 54.8744C50.2336 59.2889 48.9206 67.2577 54.6255 73.4833C46.3172 76.7432 32.485 75.2038 23.6333 64.3599C14.3968 53.0859 14.8948 37.0352 24.6068 26.4856C34.364 15.8908 50.2563 13.8986 62.051 21.89C74.2305 30.1078 77.1735 44.6191 73.5061 54.6933ZM39.9784 45.9321C39.9784 48.6035 39.9784 51.2748 39.9784 53.9462C39.9784 55.0781 40.2727 56.0289 41.3593 56.5723C42.4686 57.1156 43.3741 56.6628 44.2571 55.961C47.5396 53.3802 50.8449 50.8221 54.1501 48.2639C56.1197 46.7471 56.1197 45.2077 54.1275 43.6683C50.8675 41.1328 47.5849 38.5972 44.325 36.0391C43.4194 35.3373 42.5139 34.8166 41.3367 35.3826C40.1821 35.9485 39.9557 36.9673 39.9557 38.1218C40.001 40.7479 39.9784 43.3287 39.9784 45.9321Z" fill="#00BB45"/>
<path d="M64.0882 53.1992C58.0663 53.1992 53.1764 58.0892 53.1764 64.111C53.1764 70.1329 58.0663 75.0228 64.0882 75.0228C70.11 75.0228 75 70.1329 75 64.111C75 58.0665 70.11 53.1992 64.0882 53.1992ZM67.8235 66.0126C66.0577 66.0579 66.0577 66.0579 66.0125 67.8011C65.9672 69.0915 65.2427 69.9744 64.1335 69.997C63.0015 70.0197 62.1865 69.1368 62.1413 67.8011C62.1186 67.2578 62.1413 66.6918 62.1413 65.99C61.3489 65.99 60.6924 66.0126 60.0585 65.99C59.0171 65.9447 58.2474 65.175 58.2022 64.1789C58.1569 63.2055 58.836 62.3226 59.8774 62.2094C60.5792 62.1188 61.281 62.1867 62.1413 62.1867C62.1413 61.5076 62.1186 60.9416 62.1413 60.353C62.1865 59.0173 63.0015 58.1571 64.1561 58.1797C65.288 58.225 65.9898 59.04 66.0125 60.3756C66.0125 60.919 66.0125 61.4623 66.0125 62.1188C66.7143 62.1188 67.2802 62.0962 67.8688 62.1188C69.1366 62.1641 70.0195 62.9791 69.9968 64.0884C69.9968 65.2203 69.1139 65.99 67.8235 66.0126Z" fill="#00BB45"/>
<path d="M39.9781 45.9321C39.9781 43.3287 39.9781 40.7252 39.9781 38.1218C39.9781 36.9672 40.2045 35.9485 41.3591 35.3825C42.5363 34.8166 43.4419 35.3373 44.3474 36.039C47.6073 38.5972 50.8899 41.1327 54.1499 43.6682C56.1194 45.2077 56.1194 46.7245 54.1725 48.2639C50.8673 50.822 47.5621 53.3802 44.2795 55.961C43.3966 56.6401 42.491 57.0929 41.3817 56.5722C40.2725 56.0515 39.9781 55.0781 40.0008 53.9462C40.0008 51.2974 39.9781 48.6035 39.9781 45.9321Z" fill="white"/>
</g>
<defs>
<clipPath id="clip0_2135_8511">
<rect width="58" height="58" fill="white" transform="translate(17 17)"/>
</clipPath>
</defs>
</svg>
