<svg width="44" height="44" viewBox="0 0 44 44" fill="none" xmlns="http://www.w3.org/2000/svg">
<circle cx="22" cy="22" r="22" fill="#00BB45"/>
<g clip-path="url(#clip0_2142_8737)">
<path d="M28.2075 16.1642C28.0106 16.0728 27.8769 16.2064 27.7362 16.361C27.0258 17.1415 26.3083 17.915 25.5909 18.6814C25.4502 18.836 25.4009 18.9415 25.5135 19.1454C25.8371 19.736 25.7104 20.4814 25.2462 20.9595C24.789 21.4306 24.0715 21.5712 23.4666 21.297C22.8476 21.0157 22.4748 20.397 22.5592 19.7079C22.5873 19.4548 22.5381 19.3071 22.3201 19.1595C21.8558 18.8431 21.4127 18.4985 20.9695 18.154C20.8359 18.0485 20.7374 18.0275 20.5686 18.1118C20.1254 18.3368 19.6612 18.3368 19.2181 18.1118C19.0563 18.0275 18.9508 18.0485 18.8171 18.147C18.3388 18.5267 17.8535 18.8993 17.3541 19.2439C17.1571 19.3845 17.2204 19.5392 17.2345 19.7079C17.3119 20.5446 16.7562 21.2759 15.9191 21.4235C15.1665 21.5571 14.3716 21.065 14.1606 20.3056C13.9918 19.6939 14.1254 19.1314 14.5967 18.7025C15.0891 18.2595 15.6659 18.1329 16.2849 18.4142C16.4959 18.5126 16.6366 18.4915 16.8124 18.3509C17.2204 18.0204 17.6424 17.697 18.0715 17.4017C18.2896 17.254 18.374 17.1134 18.3388 16.8321C18.2403 16.0095 18.796 15.2993 19.612 15.1306C20.3646 14.9759 21.1454 15.461 21.3916 16.2204C21.4478 16.4032 21.4971 16.5931 21.4549 16.7689C21.3705 17.0993 21.5182 17.2751 21.7714 17.4509C22.2145 17.7532 22.6366 18.0837 23.0657 18.4142C23.1782 18.5056 23.2696 18.5267 23.4033 18.4493C23.6213 18.3298 23.8675 18.2314 24.1067 18.2876C24.4443 18.365 24.6131 18.1892 24.8101 17.9712C25.4924 17.2189 26.1888 16.4665 26.8851 15.7282C27.0117 15.5946 27.0399 15.5032 26.9414 15.3204C26.5967 14.6946 26.7444 13.8931 27.2579 13.429C27.7995 12.9439 28.5733 12.8735 29.1712 13.2532C29.7691 13.6329 30.0434 14.3853 29.8324 15.0603C29.6143 15.7493 28.9813 16.1923 28.2075 16.1642Z" fill="white"/>
<path d="M29.9168 24.3063C29.9168 25.7266 29.9097 27.1398 29.9238 28.5602C29.9238 28.8484 29.8394 28.9047 29.5721 28.8977C28.728 28.8836 27.884 28.8836 27.0399 28.8977C26.8289 28.8977 26.7304 28.8766 26.7374 28.6234C26.7444 25.7547 26.7444 22.8789 26.7444 20.0102C26.7444 19.5109 26.9344 19.3352 27.4197 19.3281C27.9824 19.3281 28.5451 19.3281 29.1079 19.3281C29.7761 19.3281 29.9168 19.4617 29.9168 20.1227C29.9168 21.5148 29.9168 22.907 29.9168 24.3063Z" fill="white"/>
<path d="M18.3037 25.3469C18.3037 24.2922 18.3037 23.2375 18.3037 22.1828C18.3037 21.5922 18.4654 21.4375 19.0563 21.4375C19.6401 21.4375 20.231 21.4375 20.8148 21.4375C21.272 21.4375 21.476 21.6133 21.476 22.0563C21.483 24.257 21.476 26.4648 21.483 28.6656C21.483 28.8625 21.4127 28.8977 21.2368 28.8977C20.3435 28.8906 19.4572 28.8836 18.5639 28.8977C18.3318 28.9047 18.2966 28.8203 18.2966 28.6164C18.3107 27.5266 18.3037 26.4367 18.3037 25.3469Z" fill="white"/>
<path d="M21.9965 29.9455C24.7397 29.9455 27.483 29.9455 30.2192 29.9455C30.3247 29.9455 30.4303 29.9314 30.5358 29.9525C30.8242 30.0088 31 30.1846 30.993 30.4799C30.9859 30.7752 30.8101 30.951 30.5217 31.0002C30.4443 31.0143 30.3599 31.0072 30.2755 31.0072C24.7538 31.0072 19.2392 31.0072 13.7175 31.0072C13.6331 31.0072 13.5487 31.0143 13.4713 31.0002C13.1829 30.958 13.007 30.7822 12.993 30.4869C12.9789 30.2127 13.1899 29.9807 13.4854 29.9525C13.5768 29.9455 13.6753 29.9525 13.7667 29.9525C16.517 29.9455 19.2603 29.9455 21.9965 29.9455Z" fill="white"/>
<path d="M25.6963 26.4086C25.6963 27.1469 25.6893 27.8852 25.7034 28.6234C25.7104 28.8414 25.6471 28.8977 25.429 28.8977C24.5498 28.8836 23.6705 28.8836 22.7913 28.8977C22.5732 28.8977 22.517 28.8414 22.517 28.6234C22.524 27.1609 22.517 25.6914 22.524 24.2289C22.524 23.7156 22.7069 23.5469 23.2274 23.5469C23.8112 23.5469 24.4021 23.5469 24.9859 23.5469C25.5205 23.5469 25.6893 23.7156 25.6963 24.2641C25.7034 24.9812 25.6963 25.6914 25.6963 26.4086Z" fill="white"/>
<path d="M14.0833 26.8867C14.0833 26.3453 14.0762 25.8109 14.0833 25.2695C14.0903 24.7773 14.2732 24.6016 14.7656 24.6016C15.3846 24.6016 16.0106 24.6016 16.6296 24.6016C17.0376 24.6016 17.2486 24.7844 17.2486 25.1922C17.2556 26.3523 17.2486 27.5125 17.2556 28.6727C17.2556 28.8344 17.2134 28.8977 17.0376 28.8977C16.1231 28.8906 15.2087 28.8906 14.2943 28.8977C14.0903 28.8977 14.0692 28.8133 14.0692 28.6445C14.0903 28.0609 14.0833 27.4703 14.0833 26.8867Z" fill="white"/>
</g>
<defs>
<clipPath id="clip0_2142_8737">
<rect width="18" height="18" fill="white" transform="translate(13 13)"/>
</clipPath>
</defs>
</svg>
