<svg width="24" height="24" viewBox="0 0 24 24" fill="none" xmlns="http://www.w3.org/2000/svg">
<g clip-path="url(#clip0_2212_8685)">
<path d="M-0.000120812 11.5266C-0.000120812 6.54547 3.47637 2.35679 8.3455 1.54375C11.2121 1.06005 13.794 1.80104 16.1117 3.5712C16.4167 3.79761 16.5488 4.04461 16.437 4.43569C16.254 5.10464 16.3658 5.76331 16.5793 6.40138C16.6606 6.63809 16.6301 6.81305 16.5285 7.02917C16.1524 7.81133 15.6746 8.50087 15.1562 9.2007C14.3023 10.3431 13.6924 11.6501 13.0926 12.9468C13.0113 13.1321 12.9402 13.307 12.686 13.3482C10.531 13.6158 9.39251 15.4786 9.34168 17.4648C9.33152 17.8559 9.36201 18.247 9.27053 18.6381C8.86392 20.398 6.96303 21.3654 5.38743 20.5112C2.3887 18.8954 0.60979 16.3739 0.0812007 12.9571C0.0507051 12.7513 0.0100444 12.5558 -0.000120812 12.3499C-0.010286 12.0721 -0.000120812 11.7942 -0.000120812 11.5266ZM6.5056 6.33963C5.58057 6.32934 4.869 7.02917 4.85884 7.96571C4.84867 8.90224 5.55007 9.63295 6.45477 9.64324C7.35947 9.65353 8.1117 8.93312 8.12186 8.01716C8.14219 7.10121 7.40013 6.33963 6.5056 6.33963ZM13.8449 7.09092C13.8449 6.17497 13.113 5.42368 12.2184 5.42368C11.3341 5.42368 10.5818 6.19555 10.5717 7.09092C10.5717 7.98629 11.3137 8.74787 12.2184 8.74787C13.1435 8.74787 13.8449 8.02746 13.8449 7.09092ZM5.58057 15.3036C6.5056 15.3139 7.21716 14.6038 7.22733 13.6673C7.22733 12.7307 6.51576 12 5.6009 12.0103C4.71652 12.0103 3.98463 12.741 3.97447 13.6364C3.94397 14.5523 4.6657 15.2933 5.58057 15.3036Z" fill="#5C637E"/>
<path d="M17.2806 7.729C18.1955 8.81991 19.3238 9.30362 20.7063 9.33449C20.6555 9.47857 20.6351 9.63295 20.5538 9.74616C20.0252 10.5386 20.2082 11.4957 19.9337 12.3602C18.7342 16.0652 17.0773 19.5129 14.4954 22.446C14.0379 22.9709 13.5398 23.4649 12.9299 23.8148C12.2387 24.2058 11.8016 23.9794 11.6898 23.1767C11.4966 21.7976 11.7711 20.4494 12.0455 19.1115C12.7368 15.7667 14.0989 12.6896 15.949 9.84907C16.3861 9.16983 16.9248 8.53175 17.2806 7.729Z" fill="#5C637E"/>
<path d="M23.9998 2.95378C23.9896 4.21965 23.8676 5.26939 23.4814 6.26768C22.8613 7.87317 21.1332 8.6862 19.5373 8.14075C17.9413 7.59529 17.0265 5.89718 17.4941 4.25053C17.7685 3.27282 18.3988 2.52154 19.3746 2.26425C20.5843 1.94521 21.55 1.37917 22.1599 0.247095C22.3327 -0.0616527 22.6173 -0.0616527 22.9121 0.103013C23.3797 0.370594 23.6237 0.823425 23.7863 1.31742C23.9591 1.92463 24.0201 2.53183 23.9998 2.95378Z" fill="#5C637E"/>
</g>
<defs>
<clipPath id="clip0_2212_8685">
<rect width="24" height="24" fill="white"/>
</clipPath>
</defs>
</svg>
