<svg width="24" height="21" viewBox="0 0 24 21" fill="none" xmlns="http://www.w3.org/2000/svg">
<g clip-path="url(#clip0_2212_8677)">
<path d="M11.9477 21C9.77538 21 7.60306 21 5.42029 21C2.39157 21 0.0417009 18.799 0.0208131 15.8611C-0.0105184 12.2971 -0.0105184 8.73317 0.0208131 5.15913C0.0417009 2.20096 2.38113 0 5.45162 0C9.79627 0 14.1514 0 18.496 0C21.6605 0 23.9686 2.21106 23.979 5.2601C23.9895 8.74327 23.9895 12.2264 23.979 15.7096C23.9686 18.7889 21.6605 21 18.4647 21C16.3028 21 14.12 21 11.9477 21ZM11.8433 11.3077C11.8746 11.3582 11.9059 11.3885 11.9164 11.4187C12.355 12.3375 13.0861 12.8827 14.1409 12.913C15.2166 12.9534 16.0104 12.4587 16.5012 11.5399C16.6266 11.3077 16.7937 11.3279 16.9503 11.3178C17.7127 11.2976 18.4856 11.3178 19.248 11.3077C19.8224 11.2976 20.167 10.9947 20.167 10.5C20.167 10.0154 19.8224 9.69231 19.248 9.69231C18.5378 9.68221 17.8172 9.68221 17.107 9.69231C16.7728 9.7024 16.5639 9.63173 16.3759 9.29856C15.8955 8.44038 15.0913 8.02644 14.0887 8.07692C13.013 8.1375 12.2924 8.72308 11.8537 9.68221C11.6657 9.68221 11.4777 9.68221 11.2793 9.68221C9.3263 9.68221 7.38374 9.68221 5.43073 9.68221C4.731 9.68221 4.29235 10.2072 4.52212 10.7524C4.68922 11.1663 5.03387 11.2976 5.48295 11.2976C7.6135 11.3077 9.73361 11.3077 11.8433 11.3077ZM15.8224 5.93654C16.9399 5.93654 18.0469 5.94663 19.1644 5.93654C19.7806 5.93654 20.1253 5.66394 20.1566 5.18942C20.1984 4.65433 19.8537 4.32115 19.2062 4.32115C17.0339 4.31106 14.8511 4.31106 12.6788 4.33125C12.3028 4.33125 12.1044 4.24038 11.9164 3.91731C11.0809 2.46346 8.88765 2.20096 7.93726 3.56394C7.37329 4.36154 6.77799 4.34135 6.03648 4.33125C5.84849 4.33125 5.65006 4.33125 5.46207 4.33125C4.84588 4.34135 4.48034 4.64423 4.48034 5.13894C4.49079 5.61346 4.87721 5.93654 5.48295 5.94663C6.00515 5.95673 6.52734 5.92644 7.04953 5.96683C7.22708 5.97692 7.46729 6.11827 7.55084 6.25962C8.05215 7.0774 8.78322 7.55192 9.76494 7.55192C10.7362 7.55192 11.5091 7.11779 11.9686 6.25962C12.1044 6.00721 12.261 5.93654 12.5326 5.94663C13.6292 5.93654 14.7258 5.93654 15.8224 5.93654ZM15.8746 16.6788C17.0234 16.6788 18.1722 16.6889 19.3211 16.6688C19.8955 16.6587 20.2297 16.2649 20.1566 15.75C20.0939 15.2957 19.7388 15.0635 19.1018 15.0635C16.9294 15.0635 14.7467 15.0635 12.5743 15.0635C12.2924 15.0635 12.1044 15.0332 11.9581 14.7404C11.5091 13.8923 10.7258 13.4481 9.75449 13.4582C8.78322 13.4582 8.05214 13.9327 7.5404 14.7505C7.4464 14.9019 7.35241 15.013 7.02865 15.0433C6.45423 15.0837 5.87982 15.0332 5.30541 15.0635C4.78322 15.0937 4.43857 15.4673 4.4699 15.9216C4.49079 16.3558 4.84588 16.6587 5.34718 16.6688C5.89026 16.6788 6.4229 16.6889 6.96598 16.6688C7.25841 16.6587 7.42551 16.7394 7.57173 17.012C8.03126 17.85 8.77277 18.2841 9.77538 18.2841C10.778 18.2841 11.4986 17.8197 11.9686 16.9918C12.1044 16.7495 12.2506 16.6688 12.5221 16.6688C13.6501 16.6889 14.7571 16.6788 15.8746 16.6788Z" fill="#5C637E"/>
<path d="M14.2661 12.1356C15.2005 12.1356 15.958 11.4033 15.958 10.5C15.958 9.59671 15.2005 8.86444 14.2661 8.86444C13.3317 8.86444 12.5742 9.59671 12.5742 10.5C12.5742 11.4033 13.3317 12.1356 14.2661 12.1356Z" fill="#5C637E"/>
<path d="M9.7649 6.73411C10.6993 6.73411 11.4568 6.00183 11.4568 5.09853C11.4568 4.19522 10.6993 3.46295 9.7649 3.46295C8.83049 3.46295 8.073 4.19522 8.073 5.09853C8.073 6.00183 8.83049 6.73411 9.7649 6.73411Z" fill="#5C637E"/>
<path d="M9.7649 17.5168C10.6993 17.5168 11.4568 16.7845 11.4568 15.8812C11.4568 14.9779 10.6993 14.2457 9.7649 14.2457C8.83049 14.2457 8.073 14.9779 8.073 15.8812C8.073 16.7845 8.83049 17.5168 9.7649 17.5168Z" fill="#5C637E"/>
</g>
<defs>
<clipPath id="clip0_2212_8677">
<rect width="24" height="21" fill="white"/>
</clipPath>
</defs>
</svg>
