<svg width="24" height="24" viewBox="0 0 24 24" fill="none" xmlns="http://www.w3.org/2000/svg">
<path d="M0.00488281 18.4702C0.00488281 14.8149 0.00488281 11.1596 0.00488281 7.50427C7.02988 7.50427 14.0549 7.50427 21.0799 7.50427C21.0799 9.23507 21.0799 10.9471 21.0799 12.6592C16.1986 10.9846 11.4549 15.1148 12.4049 20.1447C12.3736 20.151 12.3424 20.1572 12.3111 20.1572C8.89238 20.1572 5.46738 20.1635 2.04863 20.151C1.15488 20.151 0.361133 19.5261 0.0923828 18.6701C0.0736328 18.6014 0.0361328 18.5389 0.00488281 18.4702ZM8.46113 11.3595C8.68613 11.3595 8.91738 11.3783 9.13613 11.3533C9.50488 11.3158 9.76113 11.0096 9.75488 10.6535C9.74863 10.291 9.46738 9.98488 9.09238 9.96613C8.67988 9.95363 8.26738 9.95363 7.85488 9.96613C7.47988 9.97863 7.19238 10.2723 7.17988 10.641C7.16738 11.0034 7.42988 11.322 7.80488 11.3533C8.02363 11.3783 8.24238 11.3595 8.46113 11.3595ZM12.6424 9.96613C12.4424 9.96613 12.2361 9.95988 12.0361 9.96613C11.6549 9.98488 11.3674 10.2661 11.3486 10.6285C11.3299 11.0034 11.5986 11.3283 11.9924 11.3533C12.4174 11.3783 12.8486 11.3783 13.2799 11.3533C13.6736 11.3345 13.9424 11.0096 13.9299 10.6347C13.9174 10.2598 13.6236 9.97238 13.2299 9.95988C13.0299 9.95988 12.8361 9.96613 12.6424 9.96613ZM16.8236 9.96613C16.6111 9.96613 16.4049 9.95988 16.1924 9.96613C15.8174 9.98488 15.5299 10.2785 15.5174 10.641C15.5049 11.0034 15.7736 11.3283 16.1486 11.3533C16.5861 11.3783 17.0236 11.3783 17.4549 11.3533C17.8361 11.3345 18.0986 11.0159 18.0924 10.6472C18.0861 10.2723 17.7924 9.97863 17.4049 9.95988C17.2174 9.95988 17.0174 9.96613 16.8236 9.96613ZM4.31113 16.2957C4.09863 16.2957 3.89238 16.2895 3.67988 16.2957C3.30488 16.3145 3.01738 16.6019 3.00488 16.9706C2.99238 17.333 3.25488 17.6641 3.62988 17.6829C4.06738 17.7079 4.50488 17.7079 4.93613 17.6829C5.31738 17.6641 5.58613 17.3455 5.57988 16.9831C5.57363 16.6082 5.28613 16.3145 4.89238 16.2957C4.70488 16.2895 4.51113 16.2957 4.31113 16.2957ZM8.47988 16.2957C8.26738 16.2957 8.06113 16.2895 7.84863 16.2957C7.47363 16.3145 7.18613 16.6082 7.17363 16.9706C7.16113 17.333 7.42988 17.6579 7.80488 17.6829C8.24238 17.7079 8.67988 17.7079 9.11113 17.6829C9.49238 17.6641 9.75488 17.3455 9.74863 16.9768C9.74238 16.6019 9.44863 16.3082 9.06113 16.2895C8.87363 16.2895 8.67988 16.2957 8.47988 16.2957ZM4.29863 13.1278C4.09863 13.1278 3.89238 13.1216 3.69238 13.1278C3.31113 13.1403 3.01113 13.4465 3.00488 13.8151C2.99863 14.1963 3.29863 14.5149 3.69238 14.5274C4.09238 14.5399 4.48613 14.5337 4.88613 14.5274C5.27988 14.5212 5.58613 14.2088 5.58613 13.8276C5.58613 13.4465 5.28613 13.1403 4.88613 13.1278C4.68613 13.1216 4.49238 13.1278 4.29863 13.1278ZM8.44863 14.5337C8.64863 14.5337 8.85488 14.5399 9.05488 14.5337C9.44863 14.5212 9.75488 14.215 9.75488 13.8339C9.75488 13.4527 9.45488 13.1403 9.06113 13.1341C8.66113 13.1278 8.26738 13.1278 7.86738 13.1341C7.48613 13.1403 7.18613 13.4465 7.17988 13.8214C7.17363 14.2025 7.47363 14.5212 7.86113 14.5337C8.05488 14.5399 8.24863 14.5337 8.44863 14.5337ZM12.6236 14.5337C12.8361 14.5337 13.0424 14.5399 13.2549 14.5337C13.6361 14.5149 13.9299 14.2025 13.9299 13.8339C13.9299 13.459 13.6361 13.1466 13.2549 13.1341C12.8486 13.1216 12.4424 13.1216 12.0361 13.1341C11.6549 13.1403 11.3549 13.4527 11.3549 13.8214C11.3486 14.2025 11.6486 14.5149 12.0424 14.5337C12.2299 14.5399 12.4299 14.5337 12.6236 14.5337Z" fill="#5C637E"/>
<path d="M18 1.41219C18.45 1.45593 18.9125 1.43719 19.3375 1.56215C20.3687 1.86208 21.075 2.83682 21.0937 3.91154C21.1062 4.6301 21.0937 5.34867 21.0937 6.09847C14.0625 6.09847 7.03125 6.09847 0 6.09847C0.00625 5.24245 0.00625 4.38017 0.00625 3.52414C0.0375 3.46791 0.075 3.41167 0.09375 3.34919C0.275 2.66187 0.68125 2.14325 1.28125 1.7746C1.84375 1.43094 2.46875 1.39345 3.10625 1.41844L3.1 1.41219C3.1 2.09327 3.1 2.76809 3.10625 3.44916C3.10625 3.90529 3.3875 4.22396 3.8 4.23021C4.20625 4.23021 4.50625 3.91154 4.50625 3.44291C4.50625 2.76184 4.50625 2.08702 4.5125 1.40594L4.50625 1.41219C5.5375 1.41219 6.575 1.41219 7.60625 1.41219L7.6 1.40594C7.6 2.08702 7.6 2.76184 7.60625 3.44291C7.60625 3.89905 7.8875 4.21771 8.3 4.22396C8.71875 4.23021 9.0125 3.91154 9.0125 3.44291C9.0125 2.76184 9.0125 2.08702 9.01875 1.40594L9.0125 1.41219C10.0437 1.41219 11.0812 1.41219 12.1125 1.41219L12.1062 1.40594C12.1062 2.08702 12.1062 2.76184 12.1125 3.44291C12.1125 3.89905 12.3937 4.21771 12.8062 4.22396C13.225 4.23021 13.5187 3.91154 13.5187 3.44291C13.5187 2.76184 13.5187 2.08702 13.525 1.40594L13.5187 1.41219C14.55 1.41219 15.5875 1.41219 16.6187 1.41219L16.6125 1.40594C16.6125 2.08702 16.6125 2.76184 16.6187 3.44291C16.6187 3.89905 16.9 4.21771 17.3125 4.22396C17.7312 4.23021 18.025 3.91154 18.025 3.44291C18.025 2.76184 18.025 2.08702 18.0312 1.40594C18.0125 1.40594 18 1.41219 18 1.41219Z" fill="#5C637E"/>
<path d="M18.1936 23.9999C17.8561 23.9062 17.5123 23.825 17.1748 23.7187C14.9311 22.9877 13.4373 20.632 13.7248 18.2952C14.0186 15.9333 15.6936 14.1712 18.0373 13.7526C20.7186 13.2777 23.4561 15.2085 23.9123 17.8953C23.9311 18.014 23.9748 18.1264 23.9998 18.2389C23.9998 18.6451 23.9998 19.0512 23.9998 19.4573C23.9811 19.4948 23.9561 19.5323 23.9498 19.5761C23.5436 21.7692 22.2811 23.1939 20.1436 23.8312C19.8873 23.9062 19.6248 23.9437 19.3623 23.9999C18.9748 23.9999 18.5873 23.9999 18.1936 23.9999ZM19.5561 18.1389C19.5561 17.5953 19.5561 17.083 19.5561 16.5706C19.5561 16.1145 19.2686 15.802 18.8561 15.7958C18.4436 15.7958 18.1498 16.1082 18.1498 16.5581C18.1498 17.3017 18.1498 18.039 18.1498 18.7825C18.1498 19.2512 18.4436 19.5386 18.9061 19.5448C19.6498 19.5448 20.3873 19.5448 21.1311 19.5448C21.5811 19.5448 21.8998 19.2449 21.8936 18.8388C21.8936 18.4326 21.5748 18.1452 21.1186 18.1389C20.6061 18.1389 20.0936 18.1389 19.5561 18.1389Z" fill="#5C637E"/>
<path d="M3.99401 0.00624837C4.4064 0.1937 4.55011 0.518615 4.51262 0.949753C4.50013 1.09971 4.50637 1.25592 4.50637 1.41213L4.51262 1.40588C4.04399 1.40588 3.56912 1.40588 3.10049 1.40588L3.10674 1.41213C3.10674 1.24967 3.11924 1.08722 3.10049 0.924759C3.05675 0.493621 3.22546 0.187451 3.61911 0C3.74407 0.00624837 3.86904 0.00624837 3.99401 0.00624837Z" fill="#5C637E"/>
<path d="M8.49401 0.00624837C8.9064 0.1937 9.05011 0.518615 9.01262 0.949753C9.00013 1.09971 9.00637 1.25592 9.00637 1.41213L9.01262 1.40588C8.54399 1.40588 8.06912 1.40588 7.60049 1.40588L7.60674 1.41213C7.60674 1.24967 7.61924 1.08722 7.60049 0.924759C7.55675 0.493621 7.72546 0.187451 8.11911 0C8.24407 0.00624837 8.36904 0.00624837 8.49401 0.00624837Z" fill="#5C637E"/>
<path d="M12.994 0.00624837C13.4064 0.1937 13.5501 0.518615 13.5126 0.949753C13.5001 1.09971 13.5064 1.25592 13.5064 1.41213L13.5126 1.40588C13.044 1.40588 12.5691 1.40588 12.1005 1.40588L12.1067 1.41213C12.1067 1.24967 12.1192 1.08722 12.1005 0.924759C12.0568 0.493621 12.2255 0.187451 12.6191 0C12.7441 0.00624837 12.869 0.00624837 12.994 0.00624837Z" fill="#5C637E"/>
<path d="M16.6067 1.41213C16.6067 1.24967 16.6192 1.08722 16.6005 0.924759C16.5568 0.493621 16.7255 0.187451 17.1191 0C17.2441 0 17.369 0 17.494 0C17.8877 0.181203 18.0564 0.487373 18.0126 0.924759C17.9939 1.08722 18.0064 1.24967 18.0064 1.41213L18.0126 1.40588C17.544 1.40588 17.0691 1.40588 16.6005 1.40588L16.6067 1.41213Z" fill="#5C637E"/>
</svg>
