<svg width="24" height="19" viewBox="0 0 24 19" fill="none" xmlns="http://www.w3.org/2000/svg">
<g clip-path="url(#clip0_2212_8669)">
<path d="M22.2651 0H1.70281C0.771084 0 0 0.751236 0 1.69028V4.57002H24V1.69028C24 0.751236 23.2289 0 22.2651 0ZM2.05623 2.87974C1.70281 2.87974 1.41365 2.59802 1.41365 2.25371C1.41365 1.90939 1.70281 1.62768 2.05623 1.62768C2.40964 1.62768 2.6988 1.90939 2.6988 2.25371C2.66667 2.62932 2.37751 2.87974 2.05623 2.87974ZM3.91968 2.87974C3.56627 2.87974 3.27711 2.59802 3.27711 2.25371C3.27711 1.90939 3.56627 1.62768 3.91968 1.62768C4.27309 1.62768 4.56225 1.90939 4.56225 2.25371C4.56225 2.62932 4.27309 2.87974 3.91968 2.87974ZM5.78313 2.87974C5.42972 2.87974 5.14056 2.59802 5.14056 2.25371C5.14056 1.90939 5.42972 1.62768 5.78313 1.62768C6.13655 1.62768 6.4257 1.90939 6.4257 2.25371C6.4257 2.62932 6.13655 2.87974 5.78313 2.87974Z" fill="#5C637E"/>
<path d="M0 16.9654C0 18.0922 0.931727 19 2.08835 19H21.9438C23.1004 19 24.0321 18.0922 24.0321 16.9654V5.75946H0V16.9654ZM21.3012 11.8946C21.3012 11.738 21.4297 11.6128 21.5904 11.6128H21.6225C21.7831 11.6128 21.9116 11.738 21.9116 11.8946V12.8336C21.9116 12.9901 21.7831 13.1153 21.6225 13.1153H21.5904C21.4297 13.1153 21.3012 12.9901 21.3012 12.8336V11.8946ZM20.0161 11.1433C20.0161 10.9868 20.1446 10.8616 20.3052 10.8616H20.3374C20.498 10.8616 20.6265 10.9868 20.6265 11.1433V13.6161C20.6265 13.7726 20.498 13.8978 20.3374 13.8978H20.3052C20.1446 13.8978 20.0161 13.7726 20.0161 13.6161V11.1433V11.1433ZM18.7309 10.3608C18.7309 10.2043 18.8594 10.0791 19.0201 10.0791H19.0522C19.2129 10.0791 19.3414 10.2043 19.3414 10.3608V14.3987C19.3414 14.5552 19.2129 14.6804 19.0522 14.6804H19.0201C18.8594 14.6804 18.7309 14.5552 18.7309 14.3987V10.3608ZM17.4458 9.51564C17.4458 9.35913 17.5743 9.23393 17.7349 9.23393H17.7671C17.9277 9.23393 18.0562 9.35913 18.0562 9.51564V15.2438C18.0562 15.4003 17.9277 15.5255 17.7671 15.5255H17.7349C17.5743 15.5255 17.4458 15.4003 17.4458 15.2438V9.51564ZM16.1606 10.486C16.1606 10.3295 16.2892 10.2043 16.4498 10.2043H16.4819C16.6426 10.2043 16.7711 10.3295 16.7711 10.486V14.2422C16.7711 14.3987 16.6426 14.5239 16.4819 14.5239H16.4498C16.2892 14.5239 16.1606 14.3987 16.1606 14.2422V10.486ZM14.8434 11.1433C14.8434 10.9868 14.9719 10.8616 15.1325 10.8616H15.1647C15.3253 10.8616 15.4538 10.9868 15.4538 11.1433V13.6161C15.4538 13.7726 15.3253 13.8978 15.1647 13.8978H15.1325C14.9719 13.8978 14.8434 13.7726 14.8434 13.6161V11.1433ZM13.5904 10.3608C13.5904 10.2043 13.7189 10.0791 13.8795 10.0791H13.9116C14.0723 10.0791 14.2008 10.2043 14.2008 10.3608V14.3987C14.2008 14.5552 14.0723 14.6804 13.9116 14.6804H13.8795C13.7189 14.6804 13.5904 14.5552 13.5904 14.3987V10.3608ZM12.3052 11.2685C12.3052 11.112 12.4337 10.9868 12.5944 10.9868H12.6265C12.7871 10.9868 12.9157 11.112 12.9157 11.2685V13.4596C12.9157 13.6161 12.7871 13.7413 12.6265 13.7413H12.5944C12.4337 13.7413 12.3052 13.6161 12.3052 13.4596V11.2685ZM11.0201 11.8946C11.0201 11.738 11.1486 11.6128 11.3092 11.6128H11.3414C11.502 11.6128 11.6305 11.738 11.6305 11.8946V12.8336C11.6305 12.9901 11.502 13.1153 11.3414 13.1153H11.3092C11.1486 13.1153 11.0201 12.9901 11.0201 12.8336V11.8946ZM3.11647 10.4547C3.11647 10.0165 3.37349 9.73475 3.79116 9.67215C3.95181 9.64084 4.11245 9.70345 4.27309 9.76605C5.46185 10.4234 6.6506 11.0807 7.83936 11.738C8.35341 12.0198 8.35341 12.7084 7.83936 12.9901C6.6506 13.6474 5.46185 14.3048 4.27309 14.9621C3.72691 15.2438 3.14859 14.8995 3.14859 14.2735C3.14859 13.6161 3.14859 12.9901 3.14859 12.3328C3.11647 11.738 3.11647 11.0807 3.11647 10.4547Z" fill="#5C637E"/>
</g>
<defs>
<clipPath id="clip0_2212_8669">
<rect width="24" height="19" fill="white"/>
</clipPath>
</defs>
</svg>
