<svg width="24" height="20" viewBox="0 0 24 20" fill="none" xmlns="http://www.w3.org/2000/svg">
<g clip-path="url(#clip0_2212_9932)">
<path d="M16.2897 10.7633V8.03345C16.2897 7.78833 16.0892 7.58777 15.8441 7.58777C15.5989 7.58777 15.3984 7.78833 15.3984 8.03345V10.6964C15.3984 12.4791 14.0056 13.9945 12.2117 14.0502C10.3622 14.1059 8.8357 12.6128 8.8357 10.7744V8.03345C8.8357 7.78833 8.63514 7.58777 8.39002 7.58777C8.14489 7.58777 7.94434 7.78833 7.94434 8.03345V10.7633C7.94434 12.8357 9.4708 14.5738 11.4652 14.8858V16.312H9.96105C9.54879 16.312 9.21453 16.6463 9.21453 17.0585V17.4485C9.21453 17.5599 9.30367 17.649 9.41509 17.649H14.8413C14.9527 17.649 15.0418 17.5599 15.0418 17.4485V17.0585C15.0418 16.6463 14.7076 16.312 14.2953 16.312H12.7911V14.8747C14.7744 14.5627 16.2897 12.8357 16.2897 10.7633Z" fill="#5C637E"/>
<path d="M12.1226 13.5599C10.5849 13.5599 9.33704 12.3008 9.33704 10.7744V6.68523C9.33704 5.14763 10.5961 3.89972 12.1226 3.89972C13.6602 3.89972 14.9081 5.15877 14.9081 6.68523V10.7744C14.9081 12.312 13.6602 13.5599 12.1226 13.5599Z" fill="#5C637E"/>
<path d="M14.908 9.00278C14.83 9.00278 14.7632 8.93593 14.7632 8.85793V7.94429C14.7632 7.86629 14.83 7.79944 14.908 7.79944C14.986 7.79944 15.0529 7.86629 15.0529 7.94429V8.85793C15.0529 8.93593 14.986 9.00278 14.908 9.00278Z" fill="#5C637E"/>
<path d="M9.33707 9.00278C9.25908 9.00278 9.20337 8.93593 9.20337 8.86908V7.93314C9.20337 7.85515 9.27022 7.79944 9.33707 7.79944C9.41507 7.79944 9.47078 7.86629 9.47078 7.93314V8.86908C9.47078 8.93593 9.41507 9.00278 9.33707 9.00278Z" fill="#5C637E"/>
<path d="M8.40112 8.42342V8.32314C8.40112 8.28971 8.43455 8.25629 8.46798 8.25629H9.53761C9.57104 8.25629 9.60447 8.28971 9.60447 8.32314V8.42342C9.60447 8.45684 9.57104 8.49027 9.53761 8.49027H8.46798C8.43455 8.50141 8.40112 8.46799 8.40112 8.42342Z" fill="#5C637E"/>
<path d="M14.5961 8.42342V8.32314C14.5961 8.28971 14.6295 8.25629 14.6629 8.25629H15.7326C15.766 8.25629 15.7994 8.28971 15.7994 8.32314V8.42342C15.7994 8.45684 15.766 8.49027 15.7326 8.49027H14.6629C14.6295 8.50141 14.5961 8.46799 14.5961 8.42342Z" fill="#5C637E"/>
<path d="M6.48465 12.8022C6.59607 12.8022 6.69635 12.7131 6.69635 12.5905V6.12814C6.69635 6.01672 6.60721 5.91644 6.48465 5.91644C6.37323 5.91644 6.27295 6.00558 6.27295 6.12814V12.5905C6.28409 12.702 6.37323 12.8022 6.48465 12.8022Z" fill="#5C637E"/>
<path d="M4.82449 12.8022C4.93591 12.8022 5.03619 12.7131 5.03619 12.5905V6.12814C5.03619 6.01672 4.94705 5.91644 4.82449 5.91644C4.71307 5.91644 4.61279 6.00558 4.61279 6.12814V12.5905C4.62394 12.702 4.71307 12.8022 4.82449 12.8022Z" fill="#5C637E"/>
<path d="M4.0668 11.7215C4.17822 11.7215 4.2785 11.6323 4.2785 11.5098V7.19778C4.2785 7.08636 4.18936 6.98608 4.0668 6.98608C3.95538 6.98608 3.8551 7.07522 3.8551 7.19778V11.5098C3.8551 11.6323 3.94424 11.7215 4.0668 11.7215Z" fill="#5C637E"/>
<path d="M3.27579 10.5293C3.38721 10.5293 3.48749 10.4401 3.48749 10.3176V8.38998C3.48749 8.27856 3.39835 8.17828 3.27579 8.17828C3.16437 8.17828 3.06409 8.26742 3.06409 8.38998V10.3176C3.07523 10.4401 3.16437 10.5293 3.27579 10.5293Z" fill="#5C637E"/>
<path d="M0.211699 10.5293C0.32312 10.5293 0.423398 10.4401 0.423398 10.3176V8.38998C0.423398 8.27856 0.334262 8.17828 0.211699 8.17828C0.100279 8.17828 0 8.26742 0 8.38998V10.3176C0 10.4401 0.0891365 10.5293 0.211699 10.5293Z" fill="#5C637E"/>
<path d="M2.54043 11.6212C2.65186 11.6212 2.75213 11.5321 2.75213 11.4095V7.30923C2.75213 7.19781 2.663 7.09753 2.54043 7.09753C2.42901 7.09753 2.32874 7.18667 2.32874 7.30923V11.4095C2.32874 11.5209 2.41787 11.6212 2.54043 11.6212Z" fill="#5C637E"/>
<path d="M0.96939 11.6212C1.08081 11.6212 1.18109 11.5321 1.18109 11.4095V7.30923C1.18109 7.19781 1.09195 7.09753 0.96939 7.09753C0.857969 7.09753 0.75769 7.18667 0.75769 7.30923V11.4095C0.75769 11.5209 0.846827 11.6212 0.96939 11.6212Z" fill="#5C637E"/>
<path d="M1.76041 12.8022C1.87183 12.8022 1.9721 12.7131 1.9721 12.5905V6.12814C1.9721 6.01672 1.88297 5.91644 1.76041 5.91644C1.64898 5.91644 1.54871 6.00558 1.54871 6.12814V12.5905C1.54871 12.702 1.64898 12.8022 1.76041 12.8022Z" fill="#5C637E"/>
<path d="M5.62679 13.9053C5.72707 13.9053 5.81621 13.8273 5.81621 13.7159V4.99166C5.81621 4.89138 5.73821 4.80225 5.62679 4.80225C5.52651 4.80225 5.43738 4.88024 5.43738 4.99166V13.727C5.43738 13.8273 5.51537 13.9053 5.62679 13.9053Z" fill="#5C637E"/>
<path d="M17.5042 5.91644C17.3928 5.91644 17.2925 6.00558 17.2925 6.12814V12.5905C17.2925 12.702 17.3816 12.8022 17.5042 12.8022C17.6156 12.8022 17.7159 12.7131 17.7159 12.5905V6.12814C17.7159 6.00558 17.6156 5.91644 17.5042 5.91644Z" fill="#5C637E"/>
<path d="M19.1643 5.91644C19.0529 5.91644 18.9526 6.00558 18.9526 6.12814V12.5905C18.9526 12.702 19.0418 12.8022 19.1643 12.8022C19.2758 12.8022 19.376 12.7131 19.376 12.5905V6.12814C19.376 6.00558 19.2869 5.91644 19.1643 5.91644Z" fill="#5C637E"/>
<path d="M19.9331 6.99725C19.8217 6.99725 19.7214 7.08639 19.7214 7.20895V11.5209C19.7214 11.6324 19.8106 11.7326 19.9331 11.7326C20.0446 11.7326 20.1448 11.6435 20.1448 11.5209V7.19781C20.1448 7.08639 20.0446 6.99725 19.9331 6.99725Z" fill="#5C637E"/>
<path d="M20.713 8.18945C20.6016 8.18945 20.5013 8.27859 20.5013 8.40115V10.3287C20.5013 10.4401 20.5905 10.5404 20.713 10.5404C20.8245 10.5404 20.9247 10.4513 20.9247 10.3287V8.39001C20.9247 8.27859 20.8356 8.18945 20.713 8.18945Z" fill="#5C637E"/>
<path d="M23.7884 8.18945C23.6769 8.18945 23.5767 8.27859 23.5767 8.40115V10.3287C23.5767 10.4401 23.6658 10.5404 23.7884 10.5404C23.8998 10.5404 24.0001 10.4513 24.0001 10.3287V8.39001C24.0001 8.27859 23.8998 8.18945 23.7884 8.18945Z" fill="#5C637E"/>
<path d="M21.4596 7.09753C21.3482 7.09753 21.2479 7.18667 21.2479 7.30923V11.4095C21.2479 11.5209 21.3371 11.6212 21.4596 11.6212C21.571 11.6212 21.6713 11.5321 21.6713 11.4095V7.30923C21.6713 7.19781 21.571 7.09753 21.4596 7.09753Z" fill="#5C637E"/>
<path d="M23.0307 7.09753C22.9192 7.09753 22.819 7.18667 22.819 7.30923V11.4095C22.819 11.5209 22.9081 11.6212 23.0307 11.6212C23.1421 11.6212 23.2424 11.5321 23.2424 11.4095V7.30923C23.2424 7.19781 23.1421 7.09753 23.0307 7.09753Z" fill="#5C637E"/>
<path d="M22.2395 5.91644C22.1281 5.91644 22.0278 6.00558 22.0278 6.12814V12.5905C22.0278 12.702 22.117 12.8022 22.2395 12.8022C22.351 12.8022 22.4512 12.7131 22.4512 12.5905V6.12814C22.4401 6.00558 22.351 5.91644 22.2395 5.91644Z" fill="#5C637E"/>
<path d="M18.3733 4.80225C18.273 4.80225 18.1838 4.88024 18.1838 4.99166V13.727C18.1838 13.8273 18.2618 13.9165 18.3733 13.9165C18.4735 13.9165 18.5627 13.8385 18.5627 13.727V4.99166C18.5627 4.89138 18.4735 4.80225 18.3733 4.80225Z" fill="#5C637E"/>
<path d="M12.1226 19.1087C8.14486 19.1087 4.75768 16.546 3.50976 12.9805C3.4652 12.9805 3.42063 12.9805 3.36492 12.9805C3.08637 12.9805 2.80781 12.9471 2.54041 12.9025C3.78832 17.0028 7.61004 20 12.1114 20C16.5905 20 20.39 17.0474 21.6602 12.9805C21.3482 12.9805 21.0474 12.9471 20.7577 12.8802C19.5543 16.5014 16.1449 19.1087 12.1226 19.1087Z" fill="#5C637E"/>
<path d="M12.1226 0.891365C15.3426 0.891365 18.1727 2.57382 19.7883 5.09192C20.0557 4.95822 20.3454 4.8468 20.6462 4.7688C18.8858 1.91643 15.7214 0 12.1226 0C8.56825 0 5.44847 1.86072 3.67688 4.65738C4.01114 4.67967 4.32312 4.74652 4.62396 4.83565C6.27298 2.45125 9.01393 0.891365 12.1226 0.891365Z" fill="#5C637E"/>
</g>
<defs>
<clipPath id="clip0_2212_9932">
<rect width="24" height="20" fill="white"/>
</clipPath>
</defs>
</svg>
